<?xml version="1.0" encoding="UTF-8"?>
<svg xmlns="http://www.w3.org/2000/svg" version="1.1" width="300" height="300" viewBox="0 0 300 300"><rect x="0" y="0" width="300" height="300" fill="#ffffff"/><g transform="scale(10.345)"><g transform="translate(0,0)"><path fill-rule="evenodd" d="M8 0L8 1L10 1L10 0ZM16 0L16 2L17 2L17 1L18 1L18 3L17 3L17 4L15 4L15 3L14 3L14 2L15 2L15 1L13 1L13 2L11 2L11 4L10 4L10 3L9 3L9 2L8 2L8 5L9 5L9 6L8 6L8 7L9 7L9 8L8 8L8 9L7 9L7 8L6 8L6 9L7 9L7 10L6 10L6 11L7 11L7 12L6 12L6 13L7 13L7 12L8 12L8 13L9 13L9 15L8 15L8 14L5 14L5 15L3 15L3 14L2 14L2 16L1 16L1 13L0 13L0 17L3 17L3 20L1 20L1 21L3 21L3 20L4 20L4 19L5 19L5 18L4 18L4 16L5 16L5 17L7 17L7 16L9 16L9 17L8 17L8 18L6 18L6 19L9 19L9 18L12 18L12 19L16 19L16 22L17 22L17 21L18 21L18 22L19 22L19 24L20 24L20 25L21 25L21 26L20 26L20 28L18 28L18 29L22 29L22 27L21 27L21 26L22 26L22 25L23 25L23 28L25 28L25 29L26 29L26 27L27 27L27 29L28 29L28 27L29 27L29 24L28 24L28 22L29 22L29 21L27 21L27 18L28 18L28 15L29 15L29 13L27 13L27 12L26 12L26 11L28 11L28 12L29 12L29 11L28 11L28 10L29 10L29 8L28 8L28 10L26 10L26 11L25 11L25 13L27 13L27 14L25 14L25 15L27 15L27 17L26 17L26 18L24 18L24 17L25 17L25 16L23 16L23 15L22 15L22 14L23 14L23 13L24 13L24 10L25 10L25 9L27 9L27 8L24 8L24 9L22 9L22 8L21 8L21 5L20 5L20 4L21 4L21 1L20 1L20 0ZM19 1L19 2L20 2L20 1ZM12 3L12 5L10 5L10 6L9 6L9 7L10 7L10 8L9 8L9 9L10 9L10 10L7 10L7 11L8 11L8 12L10 12L10 13L11 13L11 11L13 11L13 10L14 10L14 8L15 8L15 11L14 11L14 12L15 12L15 13L12 13L12 14L10 14L10 15L9 15L9 16L11 16L11 15L12 15L12 16L14 16L14 15L15 15L15 16L16 16L16 17L18 17L18 18L16 18L16 19L18 19L18 20L19 20L19 22L20 22L20 20L21 20L21 19L23 19L23 16L22 16L22 17L21 17L21 16L20 16L20 15L21 15L21 14L22 14L22 13L23 13L23 12L18 12L18 11L23 11L23 10L18 10L18 9L17 9L17 10L18 10L18 11L16 11L16 6L17 6L17 7L18 7L18 8L19 8L19 7L20 7L20 6L19 6L19 7L18 7L18 5L19 5L19 4L20 4L20 3L18 3L18 5L15 5L15 7L14 7L14 6L13 6L13 7L12 7L12 5L14 5L14 4L13 4L13 3ZM10 6L10 7L11 7L11 8L12 8L12 7L11 7L11 6ZM0 8L0 12L1 12L1 9L2 9L2 10L5 10L5 9L4 9L4 8ZM2 11L2 13L5 13L5 11L4 11L4 12L3 12L3 11ZM17 12L17 13L15 13L15 14L17 14L17 15L16 15L16 16L17 16L17 15L18 15L18 14L19 14L19 15L20 15L20 13L18 13L18 12ZM12 14L12 15L13 15L13 14ZM5 15L5 16L7 16L7 15ZM18 16L18 17L19 17L19 16ZM12 17L12 18L15 18L15 17ZM20 17L20 18L21 18L21 17ZM0 18L0 19L1 19L1 18ZM18 18L18 19L19 19L19 20L20 20L20 19L19 19L19 18ZM10 19L10 21L8 21L8 22L9 22L9 24L10 24L10 25L11 25L11 23L12 23L12 24L13 24L13 26L12 26L12 27L9 27L9 25L8 25L8 29L9 29L9 28L11 28L11 29L15 29L15 28L16 28L16 27L15 27L15 28L13 28L13 27L14 27L14 23L15 23L15 26L17 26L17 27L19 27L19 26L17 26L17 25L18 25L18 24L17 24L17 23L15 23L15 21L14 21L14 22L13 22L13 20L12 20L12 21L11 21L11 19ZM24 19L24 20L26 20L26 19ZM6 20L6 21L7 21L7 20ZM21 21L21 24L24 24L24 21ZM10 22L10 23L11 23L11 22ZM22 22L22 23L23 23L23 22ZM26 22L26 23L25 23L25 26L24 26L24 27L25 27L25 26L26 26L26 24L27 24L27 27L28 27L28 24L27 24L27 22ZM0 0L0 7L7 7L7 0ZM1 1L1 6L6 6L6 1ZM2 2L2 5L5 5L5 2ZM22 0L22 7L29 7L29 0ZM23 1L23 6L28 6L28 1ZM24 2L24 5L27 5L27 2ZM0 22L0 29L7 29L7 22ZM1 23L1 28L6 28L6 23ZM2 24L2 27L5 27L5 24Z" fill="#000000"/></g></g></svg>
