<?xml version="1.0" encoding="UTF-8"?>
<svg xmlns="http://www.w3.org/2000/svg" version="1.1" width="300" height="300" viewBox="0 0 300 300"><rect x="0" y="0" width="300" height="300" fill="#ffffff"/><g transform="scale(10.345)"><g transform="translate(0,0)"><path fill-rule="evenodd" d="M9 0L9 1L8 1L8 2L9 2L9 3L8 3L8 4L10 4L10 7L11 7L11 4L12 4L12 5L13 5L13 4L15 4L15 3L17 3L17 4L16 4L16 5L14 5L14 8L13 8L13 6L12 6L12 9L14 9L14 10L11 10L11 11L10 11L10 9L11 9L11 8L6 8L6 9L7 9L7 10L6 10L6 11L8 11L8 12L9 12L9 14L8 14L8 13L7 13L7 12L6 12L6 13L5 13L5 8L0 8L0 9L1 9L1 10L0 10L0 12L1 12L1 10L3 10L3 9L4 9L4 11L2 11L2 13L5 13L5 16L4 16L4 17L3 17L3 18L4 18L4 19L2 19L2 20L3 20L3 21L4 21L4 20L6 20L6 21L7 21L7 20L6 20L6 19L7 19L7 18L8 18L8 20L9 20L9 18L10 18L10 19L11 19L11 18L13 18L13 19L12 19L12 20L11 20L11 22L12 22L12 24L13 24L13 25L11 25L11 24L8 24L8 29L11 29L11 28L9 28L9 25L10 25L10 27L11 27L11 26L13 26L13 27L14 27L14 26L15 26L15 29L16 29L16 27L18 27L18 26L19 26L19 27L20 27L20 28L19 28L19 29L20 29L20 28L22 28L22 27L23 27L23 29L27 29L27 28L28 28L28 26L29 26L29 23L28 23L28 25L27 25L27 24L26 24L26 23L27 23L27 22L29 22L29 20L28 20L28 19L27 19L27 16L28 16L28 15L27 15L27 12L28 12L28 11L27 11L27 12L25 12L25 9L26 9L26 8L25 8L25 9L24 9L24 8L23 8L23 9L22 9L22 8L20 8L20 7L21 7L21 2L20 2L20 4L18 4L18 3L17 3L17 2L18 2L18 1L20 1L20 0L16 0L16 1L15 1L15 3L13 3L13 4L12 4L12 2L14 2L14 1L11 1L11 2L10 2L10 0ZM10 3L10 4L11 4L11 3ZM17 4L17 8L16 8L16 9L15 9L15 10L14 10L14 11L12 11L12 12L15 12L15 14L14 14L14 13L13 13L13 14L14 14L14 15L13 15L13 16L12 16L12 13L11 13L11 12L10 12L10 13L11 13L11 16L12 16L12 17L13 17L13 16L14 16L14 18L16 18L16 19L17 19L17 20L16 20L16 21L15 21L15 20L14 20L14 19L13 19L13 20L12 20L12 21L13 21L13 22L14 22L14 21L15 21L15 22L16 22L16 23L13 23L13 24L14 24L14 25L13 25L13 26L14 26L14 25L15 25L15 26L16 26L16 25L15 25L15 24L18 24L18 25L19 25L19 26L20 26L20 23L19 23L19 24L18 24L18 23L17 23L17 22L18 22L18 21L19 21L19 22L20 22L20 21L19 21L19 20L18 20L18 18L17 18L17 16L18 16L18 17L20 17L20 15L22 15L22 14L19 14L19 13L23 13L23 11L24 11L24 10L22 10L22 11L21 11L21 12L20 12L20 10L19 10L19 11L18 11L18 9L20 9L20 8L18 8L18 6L19 6L19 7L20 7L20 5L18 5L18 4ZM8 5L8 7L9 7L9 5ZM15 6L15 7L16 7L16 6ZM17 8L17 9L16 9L16 10L15 10L15 12L17 12L17 13L16 13L16 14L15 14L15 15L14 15L14 16L15 16L15 15L16 15L16 16L17 16L17 15L19 15L19 14L17 14L17 13L18 13L18 12L17 12L17 9L18 9L18 8ZM27 8L27 9L28 9L28 10L29 10L29 9L28 9L28 8ZM8 10L8 11L9 11L9 10ZM24 12L24 13L25 13L25 15L24 15L24 14L23 14L23 16L21 16L21 17L26 17L26 16L27 16L27 15L26 15L26 13L25 13L25 12ZM6 13L6 14L7 14L7 13ZM28 13L28 14L29 14L29 13ZM1 14L1 15L0 15L0 16L3 16L3 15L2 15L2 14ZM6 15L6 16L5 16L5 19L6 19L6 18L7 18L7 17L6 17L6 16L8 16L8 17L10 17L10 18L11 18L11 17L10 17L10 16L9 16L9 15ZM0 17L0 21L1 21L1 17ZM28 17L28 18L29 18L29 17ZM19 18L19 19L21 19L21 20L22 20L22 19L23 19L23 20L24 20L24 19L23 19L23 18ZM25 19L25 21L26 21L26 20L27 20L27 19ZM13 20L13 21L14 21L14 20ZM17 20L17 21L16 21L16 22L17 22L17 21L18 21L18 20ZM8 21L8 23L9 23L9 22L10 22L10 21ZM21 21L21 24L24 24L24 21ZM22 22L22 23L23 23L23 22ZM25 24L25 25L21 25L21 26L25 26L25 27L26 27L26 28L27 28L27 27L26 27L26 26L27 26L27 25L26 25L26 24ZM13 28L13 29L14 29L14 28ZM17 28L17 29L18 29L18 28ZM0 0L0 7L7 7L7 0ZM1 1L1 6L6 6L6 1ZM2 2L2 5L5 5L5 2ZM22 0L22 7L29 7L29 0ZM23 1L23 6L28 6L28 1ZM24 2L24 5L27 5L27 2ZM0 22L0 29L7 29L7 22ZM1 23L1 28L6 28L6 23ZM2 24L2 27L5 27L5 24Z" fill="#000000"/></g></g></svg>
