<?xml version="1.0" encoding="UTF-8"?>
<svg xmlns="http://www.w3.org/2000/svg" version="1.1" width="300" height="300" viewBox="0 0 300 300"><rect x="0" y="0" width="300" height="300" fill="#ffffff"/><g transform="scale(10.345)"><g transform="translate(0,0)"><path fill-rule="evenodd" d="M10 0L10 1L8 1L8 3L9 3L9 4L8 4L8 8L6 8L6 9L7 9L7 10L6 10L6 11L7 11L7 12L5 12L5 11L4 11L4 10L5 10L5 9L4 9L4 8L3 8L3 9L2 9L2 8L0 8L0 9L1 9L1 11L0 11L0 12L1 12L1 13L0 13L0 14L1 14L1 15L0 15L0 17L1 17L1 18L0 18L0 19L1 19L1 18L3 18L3 17L5 17L5 16L6 16L6 17L8 17L8 15L9 15L9 17L10 17L10 18L5 18L5 19L3 19L3 20L2 20L2 21L3 21L3 20L6 20L6 21L8 21L8 23L9 23L9 25L8 25L8 26L9 26L9 27L8 27L8 29L9 29L9 28L11 28L11 27L12 27L12 26L11 26L11 25L12 25L12 24L11 24L11 23L10 23L10 22L11 22L11 21L12 21L12 20L11 20L11 21L10 21L10 18L12 18L12 19L14 19L14 20L13 20L13 22L14 22L14 23L13 23L13 25L14 25L14 26L13 26L13 28L14 28L14 29L15 29L15 28L16 28L16 27L14 27L14 26L15 26L15 21L14 21L14 20L16 20L16 22L17 22L17 23L19 23L19 24L20 24L20 26L19 26L19 27L17 27L17 29L18 29L18 28L20 28L20 29L22 29L22 27L21 27L21 25L22 25L22 26L24 26L24 27L25 27L25 20L24 20L24 19L26 19L26 18L24 18L24 17L22 17L22 16L25 16L25 17L26 17L26 15L27 15L27 17L28 17L28 18L27 18L27 20L26 20L26 22L27 22L27 23L26 23L26 24L27 24L27 26L26 26L26 27L27 27L27 29L28 29L28 27L29 27L29 26L28 26L28 24L29 24L29 23L28 23L28 22L29 22L29 21L27 21L27 20L29 20L29 17L28 17L28 15L29 15L29 14L27 14L27 13L29 13L29 12L28 12L28 10L29 10L29 9L28 9L28 8L26 8L26 9L25 9L25 8L22 8L22 9L21 9L21 8L20 8L20 7L21 7L21 6L20 6L20 5L19 5L19 4L21 4L21 2L20 2L20 3L18 3L18 2L19 2L19 1L21 1L21 0L17 0L17 1L18 1L18 2L17 2L17 3L18 3L18 7L17 7L17 4L15 4L15 3L14 3L14 4L13 4L13 3L12 3L12 7L11 7L11 4L10 4L10 3L9 3L9 2L11 2L11 0ZM14 0L14 1L13 1L13 2L14 2L14 1L15 1L15 2L16 2L16 0ZM9 5L9 8L8 8L8 10L7 10L7 11L8 11L8 10L9 10L9 11L11 11L11 8L10 8L10 5ZM14 5L14 6L13 6L13 7L12 7L12 8L14 8L14 6L15 6L15 7L16 7L16 8L15 8L15 11L16 11L16 8L17 8L17 9L18 9L18 10L17 10L17 12L18 12L18 13L20 13L20 12L23 12L23 11L24 11L24 13L22 13L22 15L23 15L23 14L25 14L25 15L26 15L26 13L27 13L27 12L26 12L26 13L25 13L25 11L24 11L24 10L25 10L25 9L23 9L23 10L20 10L20 8L19 8L19 7L20 7L20 6L19 6L19 7L18 7L18 8L17 8L17 7L16 7L16 6L15 6L15 5ZM9 9L9 10L10 10L10 9ZM26 9L26 10L28 10L28 9ZM13 10L13 11L14 11L14 10ZM18 10L18 12L20 12L20 10ZM1 11L1 12L2 12L2 13L1 13L1 14L2 14L2 13L4 13L4 14L3 14L3 15L1 15L1 16L2 16L2 17L3 17L3 16L4 16L4 14L5 14L5 13L4 13L4 12L2 12L2 11ZM7 12L7 13L6 13L6 14L7 14L7 13L10 13L10 14L11 14L11 13L10 13L10 12ZM14 12L14 13L12 13L12 14L14 14L14 15L15 15L15 16L16 16L16 17L15 17L15 18L14 18L14 16L13 16L13 15L11 15L11 17L12 17L12 18L14 18L14 19L16 19L16 20L17 20L17 21L18 21L18 22L19 22L19 23L20 23L20 22L19 22L19 19L20 19L20 18L21 18L21 16L20 16L20 17L19 17L19 16L18 16L18 18L17 18L17 16L16 16L16 15L18 15L18 14L17 14L17 13L15 13L15 12ZM14 13L14 14L15 14L15 13ZM19 14L19 15L21 15L21 14ZM6 15L6 16L7 16L7 15ZM16 18L16 19L17 19L17 20L18 20L18 19L19 19L19 18L18 18L18 19L17 19L17 18ZM6 19L6 20L7 20L7 19ZM21 19L21 20L23 20L23 19ZM0 20L0 21L1 21L1 20ZM8 20L8 21L9 21L9 22L10 22L10 21L9 21L9 20ZM21 21L21 24L24 24L24 21ZM22 22L22 23L23 23L23 22ZM27 23L27 24L28 24L28 23ZM10 24L10 25L9 25L9 26L10 26L10 27L11 27L11 26L10 26L10 25L11 25L11 24ZM17 24L17 25L18 25L18 24ZM27 26L27 27L28 27L28 26ZM23 28L23 29L25 29L25 28ZM0 0L0 7L7 7L7 0ZM1 1L1 6L6 6L6 1ZM2 2L2 5L5 5L5 2ZM22 0L22 7L29 7L29 0ZM23 1L23 6L28 6L28 1ZM24 2L24 5L27 5L27 2ZM0 22L0 29L7 29L7 22ZM1 23L1 28L6 28L6 23ZM2 24L2 27L5 27L5 24Z" fill="#000000"/></g></g></svg>
