<?xml version="1.0" encoding="UTF-8"?>
<svg xmlns="http://www.w3.org/2000/svg" version="1.1" width="300" height="300" viewBox="0 0 300 300"><rect x="0" y="0" width="300" height="300" fill="#ffffff"/><g transform="scale(10.345)"><g transform="translate(0,0)"><path fill-rule="evenodd" d="M8 0L8 1L10 1L10 0ZM13 0L13 2L11 2L11 4L10 4L10 3L9 3L9 2L8 2L8 5L9 5L9 6L8 6L8 7L9 7L9 8L8 8L8 9L7 9L7 8L6 8L6 9L4 9L4 8L0 8L0 9L1 9L1 10L0 10L0 12L1 12L1 13L0 13L0 15L2 15L2 16L5 16L5 15L8 15L8 16L6 16L6 17L5 17L5 20L3 20L3 19L2 19L2 20L1 20L1 21L2 21L2 20L3 20L3 21L5 21L5 20L6 20L6 21L7 21L7 20L9 20L9 21L8 21L8 22L9 22L9 23L10 23L10 24L11 24L11 23L13 23L13 24L12 24L12 25L8 25L8 29L10 29L10 28L12 28L12 26L13 26L13 25L14 25L14 23L15 23L15 21L14 21L14 23L13 23L13 19L16 19L16 23L18 23L18 24L17 24L17 25L15 25L15 26L14 26L14 27L15 27L15 28L14 28L14 29L16 29L16 28L17 28L17 27L18 27L18 28L19 28L19 29L22 29L22 27L21 27L21 26L22 26L22 25L23 25L23 28L25 28L25 29L26 29L26 27L27 27L27 29L28 29L28 27L29 27L29 24L28 24L28 22L29 22L29 21L27 21L27 18L28 18L28 15L29 15L29 13L27 13L27 12L26 12L26 11L28 11L28 12L29 12L29 11L28 11L28 10L29 10L29 8L28 8L28 10L26 10L26 11L25 11L25 13L27 13L27 14L25 14L25 15L27 15L27 17L26 17L26 18L24 18L24 17L25 17L25 16L23 16L23 15L22 15L22 14L23 14L23 13L24 13L24 10L25 10L25 9L27 9L27 8L24 8L24 9L22 9L22 8L21 8L21 5L20 5L20 4L21 4L21 1L20 1L20 0L17 0L17 1L18 1L18 3L17 3L17 2L14 2L14 0ZM19 1L19 2L20 2L20 1ZM12 3L12 5L10 5L10 6L9 6L9 7L10 7L10 8L9 8L9 9L10 9L10 10L9 10L9 12L10 12L10 13L8 13L8 10L7 10L7 9L6 9L6 10L4 10L4 9L3 9L3 10L1 10L1 11L3 11L3 14L2 14L2 15L4 15L4 11L5 11L5 12L7 12L7 13L5 13L5 14L8 14L8 15L9 15L9 16L8 16L8 17L9 17L9 19L10 19L10 21L11 21L11 22L10 22L10 23L11 23L11 22L12 22L12 21L11 21L11 20L12 20L12 19L10 19L10 17L11 17L11 18L12 18L12 17L13 17L13 16L15 16L15 15L17 15L17 16L16 16L16 18L17 18L17 19L18 19L18 20L19 20L19 22L18 22L18 21L17 21L17 22L18 22L18 23L19 23L19 22L20 22L20 20L21 20L21 19L23 19L23 16L22 16L22 17L21 17L21 16L20 16L20 15L21 15L21 14L22 14L22 13L23 13L23 12L18 12L18 11L23 11L23 10L18 10L18 9L17 9L17 10L16 10L16 6L17 6L17 7L18 7L18 8L19 8L19 7L20 7L20 6L19 6L19 7L18 7L18 5L19 5L19 4L20 4L20 3L18 3L18 5L15 5L15 3L14 3L14 4L13 4L13 3ZM12 5L12 7L11 7L11 6L10 6L10 7L11 7L11 8L12 8L12 7L13 7L13 5ZM14 5L14 8L15 8L15 5ZM13 9L13 10L14 10L14 11L11 11L11 13L10 13L10 14L9 14L9 15L10 15L10 16L9 16L9 17L10 17L10 16L11 16L11 17L12 17L12 16L13 16L13 15L15 15L15 14L17 14L17 15L18 15L18 18L19 18L19 15L20 15L20 13L19 13L19 14L18 14L18 12L17 12L17 11L18 11L18 10L17 10L17 11L15 11L15 9ZM6 10L6 11L7 11L7 10ZM12 12L12 14L11 14L11 16L12 16L12 14L15 14L15 12L14 12L14 13L13 13L13 12ZM16 12L16 13L17 13L17 12ZM0 16L0 17L1 17L1 18L0 18L0 19L1 19L1 18L4 18L4 17L1 17L1 16ZM6 17L6 18L7 18L7 17ZM20 17L20 18L21 18L21 17ZM6 19L6 20L7 20L7 19ZM19 19L19 20L20 20L20 19ZM24 19L24 20L26 20L26 19ZM21 21L21 24L24 24L24 21ZM22 22L22 23L23 23L23 22ZM26 22L26 23L25 23L25 26L24 26L24 27L25 27L25 26L26 26L26 24L27 24L27 22ZM18 24L18 25L19 25L19 26L18 26L18 27L19 27L19 28L20 28L20 26L21 26L21 25L20 25L20 24ZM27 25L27 27L28 27L28 25ZM10 26L10 27L11 27L11 26ZM15 26L15 27L17 27L17 26ZM0 0L0 7L7 7L7 0ZM1 1L1 6L6 6L6 1ZM2 2L2 5L5 5L5 2ZM22 0L22 7L29 7L29 0ZM23 1L23 6L28 6L28 1ZM24 2L24 5L27 5L27 2ZM0 22L0 29L7 29L7 22ZM1 23L1 28L6 28L6 23ZM2 24L2 27L5 27L5 24Z" fill="#000000"/></g></g></svg>
