<?xml version="1.0" encoding="UTF-8"?>
<svg xmlns="http://www.w3.org/2000/svg" version="1.1" width="300" height="300" viewBox="0 0 300 300"><rect x="0" y="0" width="300" height="300" fill="#ffffff"/><g transform="scale(9.677)"><g transform="translate(1,1)"><path fill-rule="evenodd" d="M8.75 0.5A0.25 0.25 0 0 1 8.5 0.75A0.25 0.25 0 0 1 8.25 0.5A0.25 0.25 0 0 1 8.5 0.25A0.25 0.25 0 0 1 8.75 0.5ZM9.75 0.5A0.25 0.25 0 0 1 9.5 0.75A0.25 0.25 0 0 1 9.25 0.5A0.25 0.25 0 0 1 9.5 0.25A0.25 0.25 0 0 1 9.75 0.5ZM14.75 0.5A0.25 0.25 0 0 1 14.5 0.75A0.25 0.25 0 0 1 14.25 0.5A0.25 0.25 0 0 1 14.5 0.25A0.25 0.25 0 0 1 14.75 0.5ZM17.75 0.5A0.25 0.25 0 0 1 17.5 0.75A0.25 0.25 0 0 1 17.25 0.5A0.25 0.25 0 0 1 17.5 0.25A0.25 0.25 0 0 1 17.75 0.5ZM18.75 0.5A0.25 0.25 0 0 1 18.5 0.75A0.25 0.25 0 0 1 18.25 0.5A0.25 0.25 0 0 1 18.5 0.25A0.25 0.25 0 0 1 18.75 0.5ZM19.75 0.5A0.25 0.25 0 0 1 19.5 0.75A0.25 0.25 0 0 1 19.25 0.5A0.25 0.25 0 0 1 19.5 0.25A0.25 0.25 0 0 1 19.75 0.5ZM18.75 1.5A0.25 0.25 0 0 1 18.5 1.75A0.25 0.25 0 0 1 18.25 1.5A0.25 0.25 0 0 1 18.5 1.25A0.25 0.25 0 0 1 18.75 1.5ZM20.75 1.5A0.25 0.25 0 0 1 20.5 1.75A0.25 0.25 0 0 1 20.25 1.5A0.25 0.25 0 0 1 20.5 1.25A0.25 0.25 0 0 1 20.75 1.5ZM8.75 2.5A0.25 0.25 0 0 1 8.5 2.75A0.25 0.25 0 0 1 8.25 2.5A0.25 0.25 0 0 1 8.5 2.25A0.25 0.25 0 0 1 8.75 2.5ZM11.75 2.5A0.25 0.25 0 0 1 11.5 2.75A0.25 0.25 0 0 1 11.25 2.5A0.25 0.25 0 0 1 11.5 2.25A0.25 0.25 0 0 1 11.75 2.5ZM12.75 2.5A0.25 0.25 0 0 1 12.5 2.75A0.25 0.25 0 0 1 12.25 2.5A0.25 0.25 0 0 1 12.5 2.25A0.25 0.25 0 0 1 12.75 2.5ZM13.75 2.5A0.25 0.25 0 0 1 13.5 2.75A0.25 0.25 0 0 1 13.25 2.5A0.25 0.25 0 0 1 13.5 2.25A0.25 0.25 0 0 1 13.75 2.5ZM15.75 2.5A0.25 0.25 0 0 1 15.5 2.75A0.25 0.25 0 0 1 15.25 2.5A0.25 0.25 0 0 1 15.5 2.25A0.25 0.25 0 0 1 15.75 2.5ZM16.75 2.5A0.25 0.25 0 0 1 16.5 2.75A0.25 0.25 0 0 1 16.25 2.5A0.25 0.25 0 0 1 16.5 2.25A0.25 0.25 0 0 1 16.75 2.5ZM18.75 2.5A0.25 0.25 0 0 1 18.5 2.75A0.25 0.25 0 0 1 18.25 2.5A0.25 0.25 0 0 1 18.5 2.25A0.25 0.25 0 0 1 18.75 2.5ZM19.75 2.5A0.25 0.25 0 0 1 19.5 2.75A0.25 0.25 0 0 1 19.25 2.5A0.25 0.25 0 0 1 19.5 2.25A0.25 0.25 0 0 1 19.75 2.5ZM20.75 2.5A0.25 0.25 0 0 1 20.5 2.75A0.25 0.25 0 0 1 20.25 2.5A0.25 0.25 0 0 1 20.5 2.25A0.25 0.25 0 0 1 20.75 2.5ZM8.75 3.5A0.25 0.25 0 0 1 8.5 3.75A0.25 0.25 0 0 1 8.25 3.5A0.25 0.25 0 0 1 8.5 3.25A0.25 0.25 0 0 1 8.75 3.5ZM9.75 3.5A0.25 0.25 0 0 1 9.5 3.75A0.25 0.25 0 0 1 9.25 3.5A0.25 0.25 0 0 1 9.5 3.25A0.25 0.25 0 0 1 9.75 3.5ZM11.75 3.5A0.25 0.25 0 0 1 11.5 3.75A0.25 0.25 0 0 1 11.25 3.5A0.25 0.25 0 0 1 11.5 3.25A0.25 0.25 0 0 1 11.75 3.5ZM13.75 3.5A0.25 0.25 0 0 1 13.5 3.75A0.25 0.25 0 0 1 13.25 3.5A0.25 0.25 0 0 1 13.5 3.25A0.25 0.25 0 0 1 13.75 3.5ZM15.75 3.5A0.25 0.25 0 0 1 15.5 3.75A0.25 0.25 0 0 1 15.25 3.5A0.25 0.25 0 0 1 15.5 3.25A0.25 0.25 0 0 1 15.75 3.5ZM16.75 3.5A0.25 0.25 0 0 1 16.5 3.75A0.25 0.25 0 0 1 16.25 3.5A0.25 0.25 0 0 1 16.5 3.25A0.25 0.25 0 0 1 16.75 3.5ZM17.75 3.5A0.25 0.25 0 0 1 17.5 3.75A0.25 0.25 0 0 1 17.25 3.5A0.25 0.25 0 0 1 17.5 3.25A0.25 0.25 0 0 1 17.75 3.5ZM20.75 3.5A0.25 0.25 0 0 1 20.5 3.75A0.25 0.25 0 0 1 20.25 3.5A0.25 0.25 0 0 1 20.5 3.25A0.25 0.25 0 0 1 20.75 3.5ZM8.75 4.5A0.25 0.25 0 0 1 8.5 4.75A0.25 0.25 0 0 1 8.25 4.5A0.25 0.25 0 0 1 8.5 4.25A0.25 0.25 0 0 1 8.75 4.5ZM9.75 4.5A0.25 0.25 0 0 1 9.5 4.75A0.25 0.25 0 0 1 9.25 4.5A0.25 0.25 0 0 1 9.5 4.25A0.25 0.25 0 0 1 9.75 4.5ZM10.75 4.5A0.25 0.25 0 0 1 10.5 4.75A0.25 0.25 0 0 1 10.25 4.5A0.25 0.25 0 0 1 10.5 4.25A0.25 0.25 0 0 1 10.75 4.5ZM11.75 4.5A0.25 0.25 0 0 1 11.5 4.75A0.25 0.25 0 0 1 11.25 4.5A0.25 0.25 0 0 1 11.5 4.25A0.25 0.25 0 0 1 11.75 4.5ZM15.75 4.5A0.25 0.25 0 0 1 15.5 4.75A0.25 0.25 0 0 1 15.25 4.5A0.25 0.25 0 0 1 15.5 4.25A0.25 0.25 0 0 1 15.75 4.5ZM19.75 4.5A0.25 0.25 0 0 1 19.5 4.75A0.25 0.25 0 0 1 19.25 4.5A0.25 0.25 0 0 1 19.5 4.25A0.25 0.25 0 0 1 19.75 4.5ZM9.75 5.5A0.25 0.25 0 0 1 9.5 5.75A0.25 0.25 0 0 1 9.25 5.5A0.25 0.25 0 0 1 9.5 5.25A0.25 0.25 0 0 1 9.75 5.5ZM12.75 5.5A0.25 0.25 0 0 1 12.5 5.75A0.25 0.25 0 0 1 12.25 5.5A0.25 0.25 0 0 1 12.5 5.25A0.25 0.25 0 0 1 12.75 5.5ZM14.75 5.5A0.25 0.25 0 0 1 14.5 5.75A0.25 0.25 0 0 1 14.25 5.5A0.25 0.25 0 0 1 14.5 5.25A0.25 0.25 0 0 1 14.75 5.5ZM18.75 5.5A0.25 0.25 0 0 1 18.5 5.75A0.25 0.25 0 0 1 18.25 5.5A0.25 0.25 0 0 1 18.5 5.25A0.25 0.25 0 0 1 18.75 5.5ZM19.75 5.5A0.25 0.25 0 0 1 19.5 5.75A0.25 0.25 0 0 1 19.25 5.5A0.25 0.25 0 0 1 19.5 5.25A0.25 0.25 0 0 1 19.75 5.5ZM20.75 5.5A0.25 0.25 0 0 1 20.5 5.75A0.25 0.25 0 0 1 20.25 5.5A0.25 0.25 0 0 1 20.5 5.25A0.25 0.25 0 0 1 20.75 5.5ZM8.75 6.5A0.25 0.25 0 0 1 8.5 6.75A0.25 0.25 0 0 1 8.25 6.5A0.25 0.25 0 0 1 8.5 6.25A0.25 0.25 0 0 1 8.75 6.5ZM10.75 6.5A0.25 0.25 0 0 1 10.5 6.75A0.25 0.25 0 0 1 10.25 6.5A0.25 0.25 0 0 1 10.5 6.25A0.25 0.25 0 0 1 10.75 6.5ZM12.75 6.5A0.25 0.25 0 0 1 12.5 6.75A0.25 0.25 0 0 1 12.25 6.5A0.25 0.25 0 0 1 12.5 6.25A0.25 0.25 0 0 1 12.75 6.5ZM14.75 6.5A0.25 0.25 0 0 1 14.5 6.75A0.25 0.25 0 0 1 14.25 6.5A0.25 0.25 0 0 1 14.5 6.25A0.25 0.25 0 0 1 14.75 6.5ZM16.75 6.5A0.25 0.25 0 0 1 16.5 6.75A0.25 0.25 0 0 1 16.25 6.5A0.25 0.25 0 0 1 16.5 6.25A0.25 0.25 0 0 1 16.75 6.5ZM18.75 6.5A0.25 0.25 0 0 1 18.5 6.75A0.25 0.25 0 0 1 18.25 6.5A0.25 0.25 0 0 1 18.5 6.25A0.25 0.25 0 0 1 18.75 6.5ZM20.75 6.5A0.25 0.25 0 0 1 20.5 6.75A0.25 0.25 0 0 1 20.25 6.5A0.25 0.25 0 0 1 20.5 6.25A0.25 0.25 0 0 1 20.75 6.5ZM9.75 7.5A0.25 0.25 0 0 1 9.5 7.75A0.25 0.25 0 0 1 9.25 7.5A0.25 0.25 0 0 1 9.5 7.25A0.25 0.25 0 0 1 9.75 7.5ZM11.75 7.5A0.25 0.25 0 0 1 11.5 7.75A0.25 0.25 0 0 1 11.25 7.5A0.25 0.25 0 0 1 11.5 7.25A0.25 0.25 0 0 1 11.75 7.5ZM14.75 7.5A0.25 0.25 0 0 1 14.5 7.75A0.25 0.25 0 0 1 14.25 7.5A0.25 0.25 0 0 1 14.5 7.25A0.25 0.25 0 0 1 14.75 7.5ZM15.75 7.5A0.25 0.25 0 0 1 15.5 7.75A0.25 0.25 0 0 1 15.25 7.5A0.25 0.25 0 0 1 15.5 7.25A0.25 0.25 0 0 1 15.75 7.5ZM16.75 7.5A0.25 0.25 0 0 1 16.5 7.75A0.25 0.25 0 0 1 16.25 7.5A0.25 0.25 0 0 1 16.5 7.25A0.25 0.25 0 0 1 16.75 7.5ZM17.75 7.5A0.25 0.25 0 0 1 17.5 7.75A0.25 0.25 0 0 1 17.25 7.5A0.25 0.25 0 0 1 17.5 7.25A0.25 0.25 0 0 1 17.75 7.5ZM18.75 7.5A0.25 0.25 0 0 1 18.5 7.75A0.25 0.25 0 0 1 18.25 7.5A0.25 0.25 0 0 1 18.5 7.25A0.25 0.25 0 0 1 18.75 7.5ZM19.75 7.5A0.25 0.25 0 0 1 19.5 7.75A0.25 0.25 0 0 1 19.25 7.5A0.25 0.25 0 0 1 19.5 7.25A0.25 0.25 0 0 1 19.75 7.5ZM20.75 7.5A0.25 0.25 0 0 1 20.5 7.75A0.25 0.25 0 0 1 20.25 7.5A0.25 0.25 0 0 1 20.5 7.25A0.25 0.25 0 0 1 20.75 7.5ZM0.75 8.5A0.25 0.25 0 0 1 0.5 8.75A0.25 0.25 0 0 1 0.25 8.5A0.25 0.25 0 0 1 0.5 8.25A0.25 0.25 0 0 1 0.75 8.5ZM1.75 8.5A0.25 0.25 0 0 1 1.5 8.75A0.25 0.25 0 0 1 1.25 8.5A0.25 0.25 0 0 1 1.5 8.25A0.25 0.25 0 0 1 1.75 8.5ZM2.75 8.5A0.25 0.25 0 0 1 2.5 8.75A0.25 0.25 0 0 1 2.25 8.5A0.25 0.25 0 0 1 2.5 8.25A0.25 0.25 0 0 1 2.75 8.5ZM3.75 8.5A0.25 0.25 0 0 1 3.5 8.75A0.25 0.25 0 0 1 3.25 8.5A0.25 0.25 0 0 1 3.5 8.25A0.25 0.25 0 0 1 3.75 8.5ZM6.75 8.5A0.25 0.25 0 0 1 6.5 8.75A0.25 0.25 0 0 1 6.25 8.5A0.25 0.25 0 0 1 6.5 8.25A0.25 0.25 0 0 1 6.75 8.5ZM8.75 8.5A0.25 0.25 0 0 1 8.5 8.75A0.25 0.25 0 0 1 8.25 8.5A0.25 0.25 0 0 1 8.5 8.25A0.25 0.25 0 0 1 8.75 8.5ZM15.75 8.5A0.25 0.25 0 0 1 15.5 8.75A0.25 0.25 0 0 1 15.25 8.5A0.25 0.25 0 0 1 15.5 8.25A0.25 0.25 0 0 1 15.75 8.5ZM16.75 8.5A0.25 0.25 0 0 1 16.5 8.75A0.25 0.25 0 0 1 16.25 8.5A0.25 0.25 0 0 1 16.5 8.25A0.25 0.25 0 0 1 16.75 8.5ZM17.75 8.5A0.25 0.25 0 0 1 17.5 8.75A0.25 0.25 0 0 1 17.25 8.5A0.25 0.25 0 0 1 17.5 8.25A0.25 0.25 0 0 1 17.75 8.5ZM18.75 8.5A0.25 0.25 0 0 1 18.5 8.75A0.25 0.25 0 0 1 18.25 8.5A0.25 0.25 0 0 1 18.5 8.25A0.25 0.25 0 0 1 18.75 8.5ZM19.75 8.5A0.25 0.25 0 0 1 19.5 8.75A0.25 0.25 0 0 1 19.25 8.5A0.25 0.25 0 0 1 19.5 8.25A0.25 0.25 0 0 1 19.75 8.5ZM20.75 8.5A0.25 0.25 0 0 1 20.5 8.75A0.25 0.25 0 0 1 20.25 8.5A0.25 0.25 0 0 1 20.5 8.25A0.25 0.25 0 0 1 20.75 8.5ZM21.75 8.5A0.25 0.25 0 0 1 21.5 8.75A0.25 0.25 0 0 1 21.25 8.5A0.25 0.25 0 0 1 21.5 8.25A0.25 0.25 0 0 1 21.75 8.5ZM24.75 8.5A0.25 0.25 0 0 1 24.5 8.75A0.25 0.25 0 0 1 24.25 8.5A0.25 0.25 0 0 1 24.5 8.25A0.25 0.25 0 0 1 24.75 8.5ZM25.75 8.5A0.25 0.25 0 0 1 25.5 8.75A0.25 0.25 0 0 1 25.25 8.5A0.25 0.25 0 0 1 25.5 8.25A0.25 0.25 0 0 1 25.75 8.5ZM26.75 8.5A0.25 0.25 0 0 1 26.5 8.75A0.25 0.25 0 0 1 26.25 8.5A0.25 0.25 0 0 1 26.5 8.25A0.25 0.25 0 0 1 26.75 8.5ZM28.75 8.5A0.25 0.25 0 0 1 28.5 8.75A0.25 0.25 0 0 1 28.25 8.5A0.25 0.25 0 0 1 28.5 8.25A0.25 0.25 0 0 1 28.75 8.5ZM0.75 9.5A0.25 0.25 0 0 1 0.5 9.75A0.25 0.25 0 0 1 0.25 9.5A0.25 0.25 0 0 1 0.5 9.25A0.25 0.25 0 0 1 0.75 9.5ZM2.75 9.5A0.25 0.25 0 0 1 2.5 9.75A0.25 0.25 0 0 1 2.25 9.5A0.25 0.25 0 0 1 2.5 9.25A0.25 0.25 0 0 1 2.75 9.5ZM3.75 9.5A0.25 0.25 0 0 1 3.5 9.75A0.25 0.25 0 0 1 3.25 9.5A0.25 0.25 0 0 1 3.5 9.25A0.25 0.25 0 0 1 3.75 9.5ZM7.75 9.5A0.25 0.25 0 0 1 7.5 9.75A0.25 0.25 0 0 1 7.25 9.5A0.25 0.25 0 0 1 7.5 9.25A0.25 0.25 0 0 1 7.75 9.5ZM9.75 9.5A0.25 0.25 0 0 1 9.5 9.75A0.25 0.25 0 0 1 9.25 9.5A0.25 0.25 0 0 1 9.5 9.25A0.25 0.25 0 0 1 9.75 9.5ZM14.75 9.5A0.25 0.25 0 0 1 14.5 9.75A0.25 0.25 0 0 1 14.25 9.5A0.25 0.25 0 0 1 14.5 9.25A0.25 0.25 0 0 1 14.75 9.5ZM18.75 9.5A0.25 0.25 0 0 1 18.5 9.75A0.25 0.25 0 0 1 18.25 9.5A0.25 0.25 0 0 1 18.5 9.25A0.25 0.25 0 0 1 18.75 9.5ZM19.75 9.5A0.25 0.25 0 0 1 19.5 9.75A0.25 0.25 0 0 1 19.25 9.5A0.25 0.25 0 0 1 19.5 9.25A0.25 0.25 0 0 1 19.75 9.5ZM20.75 9.5A0.25 0.25 0 0 1 20.5 9.75A0.25 0.25 0 0 1 20.25 9.5A0.25 0.25 0 0 1 20.5 9.25A0.25 0.25 0 0 1 20.75 9.5ZM21.75 9.5A0.25 0.25 0 0 1 21.5 9.75A0.25 0.25 0 0 1 21.25 9.5A0.25 0.25 0 0 1 21.5 9.25A0.25 0.25 0 0 1 21.75 9.5ZM22.75 9.5A0.25 0.25 0 0 1 22.5 9.75A0.25 0.25 0 0 1 22.25 9.5A0.25 0.25 0 0 1 22.5 9.25A0.25 0.25 0 0 1 22.75 9.5ZM23.75 9.5A0.25 0.25 0 0 1 23.5 9.75A0.25 0.25 0 0 1 23.25 9.5A0.25 0.25 0 0 1 23.5 9.25A0.25 0.25 0 0 1 23.75 9.5ZM24.75 9.5A0.25 0.25 0 0 1 24.5 9.75A0.25 0.25 0 0 1 24.25 9.5A0.25 0.25 0 0 1 24.5 9.25A0.25 0.25 0 0 1 24.75 9.5ZM28.75 9.5A0.25 0.25 0 0 1 28.5 9.75A0.25 0.25 0 0 1 28.25 9.5A0.25 0.25 0 0 1 28.5 9.25A0.25 0.25 0 0 1 28.75 9.5ZM1.75 10.5A0.25 0.25 0 0 1 1.5 10.75A0.25 0.25 0 0 1 1.25 10.5A0.25 0.25 0 0 1 1.5 10.25A0.25 0.25 0 0 1 1.75 10.5ZM4.75 10.5A0.25 0.25 0 0 1 4.5 10.75A0.25 0.25 0 0 1 4.25 10.5A0.25 0.25 0 0 1 4.5 10.25A0.25 0.25 0 0 1 4.75 10.5ZM5.75 10.5A0.25 0.25 0 0 1 5.5 10.75A0.25 0.25 0 0 1 5.25 10.5A0.25 0.25 0 0 1 5.5 10.25A0.25 0.25 0 0 1 5.75 10.5ZM6.75 10.5A0.25 0.25 0 0 1 6.5 10.75A0.25 0.25 0 0 1 6.25 10.5A0.25 0.25 0 0 1 6.5 10.25A0.25 0.25 0 0 1 6.75 10.5ZM7.75 10.5A0.25 0.25 0 0 1 7.5 10.75A0.25 0.25 0 0 1 7.25 10.5A0.25 0.25 0 0 1 7.5 10.25A0.25 0.25 0 0 1 7.75 10.5ZM14.75 10.5A0.25 0.25 0 0 1 14.5 10.75A0.25 0.25 0 0 1 14.25 10.5A0.25 0.25 0 0 1 14.5 10.25A0.25 0.25 0 0 1 14.75 10.5ZM17.75 10.5A0.25 0.25 0 0 1 17.5 10.75A0.25 0.25 0 0 1 17.25 10.5A0.25 0.25 0 0 1 17.5 10.25A0.25 0.25 0 0 1 17.75 10.5ZM18.75 10.5A0.25 0.25 0 0 1 18.5 10.75A0.25 0.25 0 0 1 18.25 10.5A0.25 0.25 0 0 1 18.5 10.25A0.25 0.25 0 0 1 18.75 10.5ZM23.75 10.5A0.25 0.25 0 0 1 23.5 10.75A0.25 0.25 0 0 1 23.25 10.5A0.25 0.25 0 0 1 23.5 10.25A0.25 0.25 0 0 1 23.75 10.5ZM26.75 10.5A0.25 0.25 0 0 1 26.5 10.75A0.25 0.25 0 0 1 26.25 10.5A0.25 0.25 0 0 1 26.5 10.25A0.25 0.25 0 0 1 26.75 10.5ZM27.75 10.5A0.25 0.25 0 0 1 27.5 10.75A0.25 0.25 0 0 1 27.25 10.5A0.25 0.25 0 0 1 27.5 10.25A0.25 0.25 0 0 1 27.75 10.5ZM0.75 11.5A0.25 0.25 0 0 1 0.5 11.75A0.25 0.25 0 0 1 0.25 11.5A0.25 0.25 0 0 1 0.5 11.25A0.25 0.25 0 0 1 0.75 11.5ZM2.75 11.5A0.25 0.25 0 0 1 2.5 11.75A0.25 0.25 0 0 1 2.25 11.5A0.25 0.25 0 0 1 2.5 11.25A0.25 0.25 0 0 1 2.75 11.5ZM4.75 11.5A0.25 0.25 0 0 1 4.5 11.75A0.25 0.25 0 0 1 4.25 11.5A0.25 0.25 0 0 1 4.5 11.25A0.25 0.25 0 0 1 4.75 11.5ZM5.75 11.5A0.25 0.25 0 0 1 5.5 11.75A0.25 0.25 0 0 1 5.25 11.5A0.25 0.25 0 0 1 5.5 11.25A0.25 0.25 0 0 1 5.75 11.5ZM8.75 11.5A0.25 0.25 0 0 1 8.5 11.75A0.25 0.25 0 0 1 8.25 11.5A0.25 0.25 0 0 1 8.5 11.25A0.25 0.25 0 0 1 8.75 11.5ZM11.75 11.5A0.25 0.25 0 0 1 11.5 11.75A0.25 0.25 0 0 1 11.25 11.5A0.25 0.25 0 0 1 11.5 11.25A0.25 0.25 0 0 1 11.75 11.5ZM12.75 11.5A0.25 0.25 0 0 1 12.5 11.75A0.25 0.25 0 0 1 12.25 11.5A0.25 0.25 0 0 1 12.5 11.25A0.25 0.25 0 0 1 12.75 11.5ZM13.75 11.5A0.25 0.25 0 0 1 13.5 11.75A0.25 0.25 0 0 1 13.25 11.5A0.25 0.25 0 0 1 13.5 11.25A0.25 0.25 0 0 1 13.75 11.5ZM18.75 11.5A0.25 0.25 0 0 1 18.5 11.75A0.25 0.25 0 0 1 18.25 11.5A0.25 0.25 0 0 1 18.5 11.25A0.25 0.25 0 0 1 18.75 11.5ZM19.75 11.5A0.25 0.25 0 0 1 19.5 11.75A0.25 0.25 0 0 1 19.25 11.5A0.25 0.25 0 0 1 19.5 11.25A0.25 0.25 0 0 1 19.75 11.5ZM20.75 11.5A0.25 0.25 0 0 1 20.5 11.75A0.25 0.25 0 0 1 20.25 11.5A0.25 0.25 0 0 1 20.5 11.25A0.25 0.25 0 0 1 20.75 11.5ZM21.75 11.5A0.25 0.25 0 0 1 21.5 11.75A0.25 0.25 0 0 1 21.25 11.5A0.25 0.25 0 0 1 21.5 11.25A0.25 0.25 0 0 1 21.75 11.5ZM22.75 11.5A0.25 0.25 0 0 1 22.5 11.75A0.25 0.25 0 0 1 22.25 11.5A0.25 0.25 0 0 1 22.5 11.25A0.25 0.25 0 0 1 22.75 11.5ZM23.75 11.5A0.25 0.25 0 0 1 23.5 11.75A0.25 0.25 0 0 1 23.25 11.5A0.25 0.25 0 0 1 23.5 11.25A0.25 0.25 0 0 1 23.75 11.5ZM25.75 11.5A0.25 0.25 0 0 1 25.5 11.75A0.25 0.25 0 0 1 25.25 11.5A0.25 0.25 0 0 1 25.5 11.25A0.25 0.25 0 0 1 25.75 11.5ZM28.75 11.5A0.25 0.25 0 0 1 28.5 11.75A0.25 0.25 0 0 1 28.25 11.5A0.25 0.25 0 0 1 28.5 11.25A0.25 0.25 0 0 1 28.75 11.5ZM2.75 12.5A0.25 0.25 0 0 1 2.5 12.75A0.25 0.25 0 0 1 2.25 12.5A0.25 0.25 0 0 1 2.5 12.25A0.25 0.25 0 0 1 2.75 12.5ZM4.75 12.5A0.25 0.25 0 0 1 4.5 12.75A0.25 0.25 0 0 1 4.25 12.5A0.25 0.25 0 0 1 4.5 12.25A0.25 0.25 0 0 1 4.75 12.5ZM6.75 12.5A0.25 0.25 0 0 1 6.5 12.75A0.25 0.25 0 0 1 6.25 12.5A0.25 0.25 0 0 1 6.5 12.25A0.25 0.25 0 0 1 6.75 12.5ZM8.75 12.5A0.25 0.25 0 0 1 8.5 12.75A0.25 0.25 0 0 1 8.25 12.5A0.25 0.25 0 0 1 8.5 12.25A0.25 0.25 0 0 1 8.75 12.5ZM9.75 12.5A0.25 0.25 0 0 1 9.5 12.75A0.25 0.25 0 0 1 9.25 12.5A0.25 0.25 0 0 1 9.5 12.25A0.25 0.25 0 0 1 9.75 12.5ZM11.75 12.5A0.25 0.25 0 0 1 11.5 12.75A0.25 0.25 0 0 1 11.25 12.5A0.25 0.25 0 0 1 11.5 12.25A0.25 0.25 0 0 1 11.75 12.5ZM13.75 12.5A0.25 0.25 0 0 1 13.5 12.75A0.25 0.25 0 0 1 13.25 12.5A0.25 0.25 0 0 1 13.5 12.25A0.25 0.25 0 0 1 13.75 12.5ZM15.75 12.5A0.25 0.25 0 0 1 15.5 12.75A0.25 0.25 0 0 1 15.25 12.5A0.25 0.25 0 0 1 15.5 12.25A0.25 0.25 0 0 1 15.75 12.5ZM16.75 12.5A0.25 0.25 0 0 1 16.5 12.75A0.25 0.25 0 0 1 16.25 12.5A0.25 0.25 0 0 1 16.5 12.25A0.25 0.25 0 0 1 16.75 12.5ZM17.75 12.5A0.25 0.25 0 0 1 17.5 12.75A0.25 0.25 0 0 1 17.25 12.5A0.25 0.25 0 0 1 17.5 12.25A0.25 0.25 0 0 1 17.75 12.5ZM23.75 12.5A0.25 0.25 0 0 1 23.5 12.75A0.25 0.25 0 0 1 23.25 12.5A0.25 0.25 0 0 1 23.5 12.25A0.25 0.25 0 0 1 23.75 12.5ZM25.75 12.5A0.25 0.25 0 0 1 25.5 12.75A0.25 0.25 0 0 1 25.25 12.5A0.25 0.25 0 0 1 25.5 12.25A0.25 0.25 0 0 1 25.75 12.5ZM26.75 12.5A0.25 0.25 0 0 1 26.5 12.75A0.25 0.25 0 0 1 26.25 12.5A0.25 0.25 0 0 1 26.5 12.25A0.25 0.25 0 0 1 26.75 12.5ZM0.75 13.5A0.25 0.25 0 0 1 0.5 13.75A0.25 0.25 0 0 1 0.25 13.5A0.25 0.25 0 0 1 0.5 13.25A0.25 0.25 0 0 1 0.75 13.5ZM1.75 13.5A0.25 0.25 0 0 1 1.5 13.75A0.25 0.25 0 0 1 1.25 13.5A0.25 0.25 0 0 1 1.5 13.25A0.25 0.25 0 0 1 1.75 13.5ZM2.75 13.5A0.25 0.25 0 0 1 2.5 13.75A0.25 0.25 0 0 1 2.25 13.5A0.25 0.25 0 0 1 2.5 13.25A0.25 0.25 0 0 1 2.75 13.5ZM3.75 13.5A0.25 0.25 0 0 1 3.5 13.75A0.25 0.25 0 0 1 3.25 13.5A0.25 0.25 0 0 1 3.5 13.25A0.25 0.25 0 0 1 3.75 13.5ZM5.75 13.5A0.25 0.25 0 0 1 5.5 13.75A0.25 0.25 0 0 1 5.25 13.5A0.25 0.25 0 0 1 5.5 13.25A0.25 0.25 0 0 1 5.75 13.5ZM8.75 13.5A0.25 0.25 0 0 1 8.5 13.75A0.25 0.25 0 0 1 8.25 13.5A0.25 0.25 0 0 1 8.5 13.25A0.25 0.25 0 0 1 8.75 13.5ZM9.75 13.5A0.25 0.25 0 0 1 9.5 13.75A0.25 0.25 0 0 1 9.25 13.5A0.25 0.25 0 0 1 9.5 13.25A0.25 0.25 0 0 1 9.75 13.5ZM10.75 13.5A0.25 0.25 0 0 1 10.5 13.75A0.25 0.25 0 0 1 10.25 13.5A0.25 0.25 0 0 1 10.5 13.25A0.25 0.25 0 0 1 10.75 13.5ZM11.75 13.5A0.25 0.25 0 0 1 11.5 13.75A0.25 0.25 0 0 1 11.25 13.5A0.25 0.25 0 0 1 11.5 13.25A0.25 0.25 0 0 1 11.75 13.5ZM15.75 13.5A0.25 0.25 0 0 1 15.5 13.75A0.25 0.25 0 0 1 15.25 13.5A0.25 0.25 0 0 1 15.5 13.25A0.25 0.25 0 0 1 15.75 13.5ZM16.75 13.5A0.25 0.25 0 0 1 16.5 13.75A0.25 0.25 0 0 1 16.25 13.5A0.25 0.25 0 0 1 16.5 13.25A0.25 0.25 0 0 1 16.75 13.5ZM19.75 13.5A0.25 0.25 0 0 1 19.5 13.75A0.25 0.25 0 0 1 19.25 13.5A0.25 0.25 0 0 1 19.5 13.25A0.25 0.25 0 0 1 19.75 13.5ZM22.75 13.5A0.25 0.25 0 0 1 22.5 13.75A0.25 0.25 0 0 1 22.25 13.5A0.25 0.25 0 0 1 22.5 13.25A0.25 0.25 0 0 1 22.75 13.5ZM27.75 13.5A0.25 0.25 0 0 1 27.5 13.75A0.25 0.25 0 0 1 27.25 13.5A0.25 0.25 0 0 1 27.5 13.25A0.25 0.25 0 0 1 27.75 13.5ZM28.75 13.5A0.25 0.25 0 0 1 28.5 13.75A0.25 0.25 0 0 1 28.25 13.5A0.25 0.25 0 0 1 28.5 13.25A0.25 0.25 0 0 1 28.75 13.5ZM2.75 14.5A0.25 0.25 0 0 1 2.5 14.75A0.25 0.25 0 0 1 2.25 14.5A0.25 0.25 0 0 1 2.5 14.25A0.25 0.25 0 0 1 2.75 14.5ZM3.75 14.5A0.25 0.25 0 0 1 3.5 14.75A0.25 0.25 0 0 1 3.25 14.5A0.25 0.25 0 0 1 3.5 14.25A0.25 0.25 0 0 1 3.75 14.5ZM6.75 14.5A0.25 0.25 0 0 1 6.5 14.75A0.25 0.25 0 0 1 6.25 14.5A0.25 0.25 0 0 1 6.5 14.25A0.25 0.25 0 0 1 6.75 14.5ZM8.75 14.5A0.25 0.25 0 0 1 8.5 14.75A0.25 0.25 0 0 1 8.25 14.5A0.25 0.25 0 0 1 8.5 14.25A0.25 0.25 0 0 1 8.75 14.5ZM9.75 14.5A0.25 0.25 0 0 1 9.5 14.75A0.25 0.25 0 0 1 9.25 14.5A0.25 0.25 0 0 1 9.5 14.25A0.25 0.25 0 0 1 9.75 14.5ZM10.75 14.5A0.25 0.25 0 0 1 10.5 14.75A0.25 0.25 0 0 1 10.25 14.5A0.25 0.25 0 0 1 10.5 14.25A0.25 0.25 0 0 1 10.75 14.5ZM12.75 14.5A0.25 0.25 0 0 1 12.5 14.75A0.25 0.25 0 0 1 12.25 14.5A0.25 0.25 0 0 1 12.5 14.25A0.25 0.25 0 0 1 12.75 14.5ZM14.75 14.5A0.25 0.25 0 0 1 14.5 14.75A0.25 0.25 0 0 1 14.25 14.5A0.25 0.25 0 0 1 14.5 14.25A0.25 0.25 0 0 1 14.75 14.5ZM18.75 14.5A0.25 0.25 0 0 1 18.5 14.75A0.25 0.25 0 0 1 18.25 14.5A0.25 0.25 0 0 1 18.5 14.25A0.25 0.25 0 0 1 18.75 14.5ZM19.75 14.5A0.25 0.25 0 0 1 19.5 14.75A0.25 0.25 0 0 1 19.25 14.5A0.25 0.25 0 0 1 19.5 14.25A0.25 0.25 0 0 1 19.75 14.5ZM21.75 14.5A0.25 0.25 0 0 1 21.5 14.75A0.25 0.25 0 0 1 21.25 14.5A0.25 0.25 0 0 1 21.5 14.25A0.25 0.25 0 0 1 21.75 14.5ZM25.75 14.5A0.25 0.25 0 0 1 25.5 14.75A0.25 0.25 0 0 1 25.25 14.5A0.25 0.25 0 0 1 25.5 14.25A0.25 0.25 0 0 1 25.75 14.5ZM26.75 14.5A0.25 0.25 0 0 1 26.5 14.75A0.25 0.25 0 0 1 26.25 14.5A0.25 0.25 0 0 1 26.5 14.25A0.25 0.25 0 0 1 26.75 14.5ZM27.75 14.5A0.25 0.25 0 0 1 27.5 14.75A0.25 0.25 0 0 1 27.25 14.5A0.25 0.25 0 0 1 27.5 14.25A0.25 0.25 0 0 1 27.75 14.5ZM28.75 14.5A0.25 0.25 0 0 1 28.5 14.75A0.25 0.25 0 0 1 28.25 14.5A0.25 0.25 0 0 1 28.5 14.25A0.25 0.25 0 0 1 28.75 14.5ZM0.75 15.5A0.25 0.25 0 0 1 0.5 15.75A0.25 0.25 0 0 1 0.25 15.5A0.25 0.25 0 0 1 0.5 15.25A0.25 0.25 0 0 1 0.75 15.5ZM1.75 15.5A0.25 0.25 0 0 1 1.5 15.75A0.25 0.25 0 0 1 1.25 15.5A0.25 0.25 0 0 1 1.5 15.25A0.25 0.25 0 0 1 1.75 15.5ZM2.75 15.5A0.25 0.25 0 0 1 2.5 15.75A0.25 0.25 0 0 1 2.25 15.5A0.25 0.25 0 0 1 2.5 15.25A0.25 0.25 0 0 1 2.75 15.5ZM3.75 15.5A0.25 0.25 0 0 1 3.5 15.75A0.25 0.25 0 0 1 3.25 15.5A0.25 0.25 0 0 1 3.5 15.25A0.25 0.25 0 0 1 3.75 15.5ZM5.75 15.5A0.25 0.25 0 0 1 5.5 15.75A0.25 0.25 0 0 1 5.25 15.5A0.25 0.25 0 0 1 5.5 15.25A0.25 0.25 0 0 1 5.75 15.5ZM8.75 15.5A0.25 0.25 0 0 1 8.5 15.75A0.25 0.25 0 0 1 8.25 15.5A0.25 0.25 0 0 1 8.5 15.25A0.25 0.25 0 0 1 8.75 15.5ZM9.75 15.5A0.25 0.25 0 0 1 9.5 15.75A0.25 0.25 0 0 1 9.25 15.5A0.25 0.25 0 0 1 9.5 15.25A0.25 0.25 0 0 1 9.75 15.5ZM10.75 15.5A0.25 0.25 0 0 1 10.5 15.75A0.25 0.25 0 0 1 10.25 15.5A0.25 0.25 0 0 1 10.5 15.25A0.25 0.25 0 0 1 10.75 15.5ZM12.75 15.5A0.25 0.25 0 0 1 12.5 15.75A0.25 0.25 0 0 1 12.25 15.5A0.25 0.25 0 0 1 12.5 15.25A0.25 0.25 0 0 1 12.75 15.5ZM14.75 15.5A0.25 0.25 0 0 1 14.5 15.75A0.25 0.25 0 0 1 14.25 15.5A0.25 0.25 0 0 1 14.5 15.25A0.25 0.25 0 0 1 14.75 15.5ZM20.75 15.5A0.25 0.25 0 0 1 20.5 15.75A0.25 0.25 0 0 1 20.25 15.5A0.25 0.25 0 0 1 20.5 15.25A0.25 0.25 0 0 1 20.75 15.5ZM21.75 15.5A0.25 0.25 0 0 1 21.5 15.75A0.25 0.25 0 0 1 21.25 15.5A0.25 0.25 0 0 1 21.5 15.25A0.25 0.25 0 0 1 21.75 15.5ZM22.75 15.5A0.25 0.25 0 0 1 22.5 15.75A0.25 0.25 0 0 1 22.25 15.5A0.25 0.25 0 0 1 22.5 15.25A0.25 0.25 0 0 1 22.75 15.5ZM27.75 15.5A0.25 0.25 0 0 1 27.5 15.75A0.25 0.25 0 0 1 27.25 15.5A0.25 0.25 0 0 1 27.5 15.25A0.25 0.25 0 0 1 27.75 15.5ZM1.75 16.5A0.25 0.25 0 0 1 1.5 16.75A0.25 0.25 0 0 1 1.25 16.5A0.25 0.25 0 0 1 1.5 16.25A0.25 0.25 0 0 1 1.75 16.5ZM3.75 16.5A0.25 0.25 0 0 1 3.5 16.75A0.25 0.25 0 0 1 3.25 16.5A0.25 0.25 0 0 1 3.5 16.25A0.25 0.25 0 0 1 3.75 16.5ZM5.75 16.5A0.25 0.25 0 0 1 5.5 16.75A0.25 0.25 0 0 1 5.25 16.5A0.25 0.25 0 0 1 5.5 16.25A0.25 0.25 0 0 1 5.75 16.5ZM6.75 16.5A0.25 0.25 0 0 1 6.5 16.75A0.25 0.25 0 0 1 6.25 16.5A0.25 0.25 0 0 1 6.5 16.25A0.25 0.25 0 0 1 6.75 16.5ZM8.75 16.5A0.25 0.25 0 0 1 8.5 16.75A0.25 0.25 0 0 1 8.25 16.5A0.25 0.25 0 0 1 8.5 16.25A0.25 0.25 0 0 1 8.75 16.5ZM9.75 16.5A0.25 0.25 0 0 1 9.5 16.75A0.25 0.25 0 0 1 9.25 16.5A0.25 0.25 0 0 1 9.5 16.25A0.25 0.25 0 0 1 9.75 16.5ZM11.75 16.5A0.25 0.25 0 0 1 11.5 16.75A0.25 0.25 0 0 1 11.25 16.5A0.25 0.25 0 0 1 11.5 16.25A0.25 0.25 0 0 1 11.75 16.5ZM13.75 16.5A0.25 0.25 0 0 1 13.5 16.75A0.25 0.25 0 0 1 13.25 16.5A0.25 0.25 0 0 1 13.5 16.25A0.25 0.25 0 0 1 13.75 16.5ZM14.75 16.5A0.25 0.25 0 0 1 14.5 16.75A0.25 0.25 0 0 1 14.25 16.5A0.25 0.25 0 0 1 14.5 16.25A0.25 0.25 0 0 1 14.75 16.5ZM16.75 16.5A0.25 0.25 0 0 1 16.5 16.75A0.25 0.25 0 0 1 16.25 16.5A0.25 0.25 0 0 1 16.5 16.25A0.25 0.25 0 0 1 16.75 16.5ZM18.75 16.5A0.25 0.25 0 0 1 18.5 16.75A0.25 0.25 0 0 1 18.25 16.5A0.25 0.25 0 0 1 18.5 16.25A0.25 0.25 0 0 1 18.75 16.5ZM21.75 16.5A0.25 0.25 0 0 1 21.5 16.75A0.25 0.25 0 0 1 21.25 16.5A0.25 0.25 0 0 1 21.5 16.25A0.25 0.25 0 0 1 21.75 16.5ZM23.75 16.5A0.25 0.25 0 0 1 23.5 16.75A0.25 0.25 0 0 1 23.25 16.5A0.25 0.25 0 0 1 23.5 16.25A0.25 0.25 0 0 1 23.75 16.5ZM24.75 16.5A0.25 0.25 0 0 1 24.5 16.75A0.25 0.25 0 0 1 24.25 16.5A0.25 0.25 0 0 1 24.5 16.25A0.25 0.25 0 0 1 24.75 16.5ZM27.75 16.5A0.25 0.25 0 0 1 27.5 16.75A0.25 0.25 0 0 1 27.25 16.5A0.25 0.25 0 0 1 27.5 16.25A0.25 0.25 0 0 1 27.75 16.5ZM2.75 17.5A0.25 0.25 0 0 1 2.5 17.75A0.25 0.25 0 0 1 2.25 17.5A0.25 0.25 0 0 1 2.5 17.25A0.25 0.25 0 0 1 2.75 17.5ZM3.75 17.5A0.25 0.25 0 0 1 3.5 17.75A0.25 0.25 0 0 1 3.25 17.5A0.25 0.25 0 0 1 3.5 17.25A0.25 0.25 0 0 1 3.75 17.5ZM4.75 17.5A0.25 0.25 0 0 1 4.5 17.75A0.25 0.25 0 0 1 4.25 17.5A0.25 0.25 0 0 1 4.5 17.25A0.25 0.25 0 0 1 4.75 17.5ZM7.75 17.5A0.25 0.25 0 0 1 7.5 17.75A0.25 0.25 0 0 1 7.25 17.5A0.25 0.25 0 0 1 7.5 17.25A0.25 0.25 0 0 1 7.75 17.5ZM8.75 17.5A0.25 0.25 0 0 1 8.5 17.75A0.25 0.25 0 0 1 8.25 17.5A0.25 0.25 0 0 1 8.5 17.25A0.25 0.25 0 0 1 8.75 17.5ZM10.75 17.5A0.25 0.25 0 0 1 10.5 17.75A0.25 0.25 0 0 1 10.25 17.5A0.25 0.25 0 0 1 10.5 17.25A0.25 0.25 0 0 1 10.75 17.5ZM12.75 17.5A0.25 0.25 0 0 1 12.5 17.75A0.25 0.25 0 0 1 12.25 17.5A0.25 0.25 0 0 1 12.5 17.25A0.25 0.25 0 0 1 12.75 17.5ZM13.75 17.5A0.25 0.25 0 0 1 13.5 17.75A0.25 0.25 0 0 1 13.25 17.5A0.25 0.25 0 0 1 13.5 17.25A0.25 0.25 0 0 1 13.75 17.5ZM14.75 17.5A0.25 0.25 0 0 1 14.5 17.75A0.25 0.25 0 0 1 14.25 17.5A0.25 0.25 0 0 1 14.5 17.25A0.25 0.25 0 0 1 14.75 17.5ZM15.75 17.5A0.25 0.25 0 0 1 15.5 17.75A0.25 0.25 0 0 1 15.25 17.5A0.25 0.25 0 0 1 15.5 17.25A0.25 0.25 0 0 1 15.75 17.5ZM20.75 17.5A0.25 0.25 0 0 1 20.5 17.75A0.25 0.25 0 0 1 20.25 17.5A0.25 0.25 0 0 1 20.5 17.25A0.25 0.25 0 0 1 20.75 17.5ZM23.75 17.5A0.25 0.25 0 0 1 23.5 17.75A0.25 0.25 0 0 1 23.25 17.5A0.25 0.25 0 0 1 23.5 17.25A0.25 0.25 0 0 1 23.75 17.5ZM26.75 17.5A0.25 0.25 0 0 1 26.5 17.75A0.25 0.25 0 0 1 26.25 17.5A0.25 0.25 0 0 1 26.5 17.25A0.25 0.25 0 0 1 26.75 17.5ZM27.75 17.5A0.25 0.25 0 0 1 27.5 17.75A0.25 0.25 0 0 1 27.25 17.5A0.25 0.25 0 0 1 27.5 17.25A0.25 0.25 0 0 1 27.75 17.5ZM0.75 18.5A0.25 0.25 0 0 1 0.5 18.75A0.25 0.25 0 0 1 0.25 18.5A0.25 0.25 0 0 1 0.5 18.25A0.25 0.25 0 0 1 0.75 18.5ZM2.75 18.5A0.25 0.25 0 0 1 2.5 18.75A0.25 0.25 0 0 1 2.25 18.5A0.25 0.25 0 0 1 2.5 18.25A0.25 0.25 0 0 1 2.75 18.5ZM4.75 18.5A0.25 0.25 0 0 1 4.5 18.75A0.25 0.25 0 0 1 4.25 18.5A0.25 0.25 0 0 1 4.5 18.25A0.25 0.25 0 0 1 4.75 18.5ZM6.75 18.5A0.25 0.25 0 0 1 6.5 18.75A0.25 0.25 0 0 1 6.25 18.5A0.25 0.25 0 0 1 6.5 18.25A0.25 0.25 0 0 1 6.75 18.5ZM8.75 18.5A0.25 0.25 0 0 1 8.5 18.75A0.25 0.25 0 0 1 8.25 18.5A0.25 0.25 0 0 1 8.5 18.25A0.25 0.25 0 0 1 8.75 18.5ZM9.75 18.5A0.25 0.25 0 0 1 9.5 18.75A0.25 0.25 0 0 1 9.25 18.5A0.25 0.25 0 0 1 9.5 18.25A0.25 0.25 0 0 1 9.75 18.5ZM11.75 18.5A0.25 0.25 0 0 1 11.5 18.75A0.25 0.25 0 0 1 11.25 18.5A0.25 0.25 0 0 1 11.5 18.25A0.25 0.25 0 0 1 11.75 18.5ZM12.75 18.5A0.25 0.25 0 0 1 12.5 18.75A0.25 0.25 0 0 1 12.25 18.5A0.25 0.25 0 0 1 12.5 18.25A0.25 0.25 0 0 1 12.75 18.5ZM14.75 18.5A0.25 0.25 0 0 1 14.5 18.75A0.25 0.25 0 0 1 14.25 18.5A0.25 0.25 0 0 1 14.5 18.25A0.25 0.25 0 0 1 14.75 18.5ZM15.75 18.5A0.25 0.25 0 0 1 15.5 18.75A0.25 0.25 0 0 1 15.25 18.5A0.25 0.25 0 0 1 15.5 18.25A0.25 0.25 0 0 1 15.75 18.5ZM16.75 18.5A0.25 0.25 0 0 1 16.5 18.75A0.25 0.25 0 0 1 16.25 18.5A0.25 0.25 0 0 1 16.5 18.25A0.25 0.25 0 0 1 16.75 18.5ZM17.75 18.5A0.25 0.25 0 0 1 17.5 18.75A0.25 0.25 0 0 1 17.25 18.5A0.25 0.25 0 0 1 17.5 18.25A0.25 0.25 0 0 1 17.75 18.5ZM18.75 18.5A0.25 0.25 0 0 1 18.5 18.75A0.25 0.25 0 0 1 18.25 18.5A0.25 0.25 0 0 1 18.5 18.25A0.25 0.25 0 0 1 18.75 18.5ZM23.75 18.5A0.25 0.25 0 0 1 23.5 18.75A0.25 0.25 0 0 1 23.25 18.5A0.25 0.25 0 0 1 23.5 18.25A0.25 0.25 0 0 1 23.75 18.5ZM24.75 18.5A0.25 0.25 0 0 1 24.5 18.75A0.25 0.25 0 0 1 24.25 18.5A0.25 0.25 0 0 1 24.5 18.25A0.25 0.25 0 0 1 24.75 18.5ZM25.75 18.5A0.25 0.25 0 0 1 25.5 18.75A0.25 0.25 0 0 1 25.25 18.5A0.25 0.25 0 0 1 25.5 18.25A0.25 0.25 0 0 1 25.75 18.5ZM26.75 18.5A0.25 0.25 0 0 1 26.5 18.75A0.25 0.25 0 0 1 26.25 18.5A0.25 0.25 0 0 1 26.5 18.25A0.25 0.25 0 0 1 26.75 18.5ZM2.75 19.5A0.25 0.25 0 0 1 2.5 19.75A0.25 0.25 0 0 1 2.25 19.5A0.25 0.25 0 0 1 2.5 19.25A0.25 0.25 0 0 1 2.75 19.5ZM3.75 19.5A0.25 0.25 0 0 1 3.5 19.75A0.25 0.25 0 0 1 3.25 19.5A0.25 0.25 0 0 1 3.5 19.25A0.25 0.25 0 0 1 3.75 19.5ZM4.75 19.5A0.25 0.25 0 0 1 4.5 19.75A0.25 0.25 0 0 1 4.25 19.5A0.25 0.25 0 0 1 4.5 19.25A0.25 0.25 0 0 1 4.75 19.5ZM7.75 19.5A0.25 0.25 0 0 1 7.5 19.75A0.25 0.25 0 0 1 7.25 19.5A0.25 0.25 0 0 1 7.5 19.25A0.25 0.25 0 0 1 7.75 19.5ZM8.75 19.5A0.25 0.25 0 0 1 8.5 19.75A0.25 0.25 0 0 1 8.25 19.5A0.25 0.25 0 0 1 8.5 19.25A0.25 0.25 0 0 1 8.75 19.5ZM12.75 19.5A0.25 0.25 0 0 1 12.5 19.75A0.25 0.25 0 0 1 12.25 19.5A0.25 0.25 0 0 1 12.5 19.25A0.25 0.25 0 0 1 12.75 19.5ZM17.75 19.5A0.25 0.25 0 0 1 17.5 19.75A0.25 0.25 0 0 1 17.25 19.5A0.25 0.25 0 0 1 17.5 19.25A0.25 0.25 0 0 1 17.75 19.5ZM19.75 19.5A0.25 0.25 0 0 1 19.5 19.75A0.25 0.25 0 0 1 19.25 19.5A0.25 0.25 0 0 1 19.5 19.25A0.25 0.25 0 0 1 19.75 19.5ZM21.75 19.5A0.25 0.25 0 0 1 21.5 19.75A0.25 0.25 0 0 1 21.25 19.5A0.25 0.25 0 0 1 21.5 19.25A0.25 0.25 0 0 1 21.75 19.5ZM22.75 19.5A0.25 0.25 0 0 1 22.5 19.75A0.25 0.25 0 0 1 22.25 19.5A0.25 0.25 0 0 1 22.5 19.25A0.25 0.25 0 0 1 22.75 19.5ZM23.75 19.5A0.25 0.25 0 0 1 23.5 19.75A0.25 0.25 0 0 1 23.25 19.5A0.25 0.25 0 0 1 23.5 19.25A0.25 0.25 0 0 1 23.75 19.5ZM26.75 19.5A0.25 0.25 0 0 1 26.5 19.75A0.25 0.25 0 0 1 26.25 19.5A0.25 0.25 0 0 1 26.5 19.25A0.25 0.25 0 0 1 26.75 19.5ZM1.75 20.5A0.25 0.25 0 0 1 1.5 20.75A0.25 0.25 0 0 1 1.25 20.5A0.25 0.25 0 0 1 1.5 20.25A0.25 0.25 0 0 1 1.75 20.5ZM2.75 20.5A0.25 0.25 0 0 1 2.5 20.75A0.25 0.25 0 0 1 2.25 20.5A0.25 0.25 0 0 1 2.5 20.25A0.25 0.25 0 0 1 2.75 20.5ZM5.75 20.5A0.25 0.25 0 0 1 5.5 20.75A0.25 0.25 0 0 1 5.25 20.5A0.25 0.25 0 0 1 5.5 20.25A0.25 0.25 0 0 1 5.75 20.5ZM6.75 20.5A0.25 0.25 0 0 1 6.5 20.75A0.25 0.25 0 0 1 6.25 20.5A0.25 0.25 0 0 1 6.5 20.25A0.25 0.25 0 0 1 6.75 20.5ZM7.75 20.5A0.25 0.25 0 0 1 7.5 20.75A0.25 0.25 0 0 1 7.25 20.5A0.25 0.25 0 0 1 7.5 20.25A0.25 0.25 0 0 1 7.75 20.5ZM10.75 20.5A0.25 0.25 0 0 1 10.5 20.75A0.25 0.25 0 0 1 10.25 20.5A0.25 0.25 0 0 1 10.5 20.25A0.25 0.25 0 0 1 10.75 20.5ZM11.75 20.5A0.25 0.25 0 0 1 11.5 20.75A0.25 0.25 0 0 1 11.25 20.5A0.25 0.25 0 0 1 11.5 20.25A0.25 0.25 0 0 1 11.75 20.5ZM12.75 20.5A0.25 0.25 0 0 1 12.5 20.75A0.25 0.25 0 0 1 12.25 20.5A0.25 0.25 0 0 1 12.5 20.25A0.25 0.25 0 0 1 12.75 20.5ZM13.75 20.5A0.25 0.25 0 0 1 13.5 20.75A0.25 0.25 0 0 1 13.25 20.5A0.25 0.25 0 0 1 13.5 20.25A0.25 0.25 0 0 1 13.75 20.5ZM15.75 20.5A0.25 0.25 0 0 1 15.5 20.75A0.25 0.25 0 0 1 15.25 20.5A0.25 0.25 0 0 1 15.5 20.25A0.25 0.25 0 0 1 15.75 20.5ZM16.75 20.5A0.25 0.25 0 0 1 16.5 20.75A0.25 0.25 0 0 1 16.25 20.5A0.25 0.25 0 0 1 16.5 20.25A0.25 0.25 0 0 1 16.75 20.5ZM17.75 20.5A0.25 0.25 0 0 1 17.5 20.75A0.25 0.25 0 0 1 17.25 20.5A0.25 0.25 0 0 1 17.5 20.25A0.25 0.25 0 0 1 17.75 20.5ZM18.75 20.5A0.25 0.25 0 0 1 18.5 20.75A0.25 0.25 0 0 1 18.25 20.5A0.25 0.25 0 0 1 18.5 20.25A0.25 0.25 0 0 1 18.75 20.5ZM20.75 20.5A0.25 0.25 0 0 1 20.5 20.75A0.25 0.25 0 0 1 20.25 20.5A0.25 0.25 0 0 1 20.5 20.25A0.25 0.25 0 0 1 20.75 20.5ZM21.75 20.5A0.25 0.25 0 0 1 21.5 20.75A0.25 0.25 0 0 1 21.25 20.5A0.25 0.25 0 0 1 21.5 20.25A0.25 0.25 0 0 1 21.75 20.5ZM22.75 20.5A0.25 0.25 0 0 1 22.5 20.75A0.25 0.25 0 0 1 22.25 20.5A0.25 0.25 0 0 1 22.5 20.25A0.25 0.25 0 0 1 22.75 20.5ZM23.75 20.5A0.25 0.25 0 0 1 23.5 20.75A0.25 0.25 0 0 1 23.25 20.5A0.25 0.25 0 0 1 23.5 20.25A0.25 0.25 0 0 1 23.75 20.5ZM24.75 20.5A0.25 0.25 0 0 1 24.5 20.75A0.25 0.25 0 0 1 24.25 20.5A0.25 0.25 0 0 1 24.5 20.25A0.25 0.25 0 0 1 24.75 20.5ZM25.75 20.5A0.25 0.25 0 0 1 25.5 20.75A0.25 0.25 0 0 1 25.25 20.5A0.25 0.25 0 0 1 25.5 20.25A0.25 0.25 0 0 1 25.75 20.5ZM26.75 20.5A0.25 0.25 0 0 1 26.5 20.75A0.25 0.25 0 0 1 26.25 20.5A0.25 0.25 0 0 1 26.5 20.25A0.25 0.25 0 0 1 26.75 20.5ZM8.75 21.5A0.25 0.25 0 0 1 8.5 21.75A0.25 0.25 0 0 1 8.25 21.5A0.25 0.25 0 0 1 8.5 21.25A0.25 0.25 0 0 1 8.75 21.5ZM12.75 21.5A0.25 0.25 0 0 1 12.5 21.75A0.25 0.25 0 0 1 12.25 21.5A0.25 0.25 0 0 1 12.5 21.25A0.25 0.25 0 0 1 12.75 21.5ZM13.75 21.5A0.25 0.25 0 0 1 13.5 21.75A0.25 0.25 0 0 1 13.25 21.5A0.25 0.25 0 0 1 13.5 21.25A0.25 0.25 0 0 1 13.75 21.5ZM16.75 21.5A0.25 0.25 0 0 1 16.5 21.75A0.25 0.25 0 0 1 16.25 21.5A0.25 0.25 0 0 1 16.5 21.25A0.25 0.25 0 0 1 16.75 21.5ZM18.75 21.5A0.25 0.25 0 0 1 18.5 21.75A0.25 0.25 0 0 1 18.25 21.5A0.25 0.25 0 0 1 18.5 21.25A0.25 0.25 0 0 1 18.75 21.5ZM20.75 21.5A0.25 0.25 0 0 1 20.5 21.75A0.25 0.25 0 0 1 20.25 21.5A0.25 0.25 0 0 1 20.5 21.25A0.25 0.25 0 0 1 20.75 21.5ZM24.75 21.5A0.25 0.25 0 0 1 24.5 21.75A0.25 0.25 0 0 1 24.25 21.5A0.25 0.25 0 0 1 24.5 21.25A0.25 0.25 0 0 1 24.75 21.5ZM25.75 21.5A0.25 0.25 0 0 1 25.5 21.75A0.25 0.25 0 0 1 25.25 21.5A0.25 0.25 0 0 1 25.5 21.25A0.25 0.25 0 0 1 25.75 21.5ZM26.75 21.5A0.25 0.25 0 0 1 26.5 21.75A0.25 0.25 0 0 1 26.25 21.5A0.25 0.25 0 0 1 26.5 21.25A0.25 0.25 0 0 1 26.75 21.5ZM27.75 21.5A0.25 0.25 0 0 1 27.5 21.75A0.25 0.25 0 0 1 27.25 21.5A0.25 0.25 0 0 1 27.5 21.25A0.25 0.25 0 0 1 27.75 21.5ZM28.75 21.5A0.25 0.25 0 0 1 28.5 21.75A0.25 0.25 0 0 1 28.25 21.5A0.25 0.25 0 0 1 28.5 21.25A0.25 0.25 0 0 1 28.75 21.5ZM11.75 22.5A0.25 0.25 0 0 1 11.5 22.75A0.25 0.25 0 0 1 11.25 22.5A0.25 0.25 0 0 1 11.5 22.25A0.25 0.25 0 0 1 11.75 22.5ZM12.75 22.5A0.25 0.25 0 0 1 12.5 22.75A0.25 0.25 0 0 1 12.25 22.5A0.25 0.25 0 0 1 12.5 22.25A0.25 0.25 0 0 1 12.75 22.5ZM13.75 22.5A0.25 0.25 0 0 1 13.5 22.75A0.25 0.25 0 0 1 13.25 22.5A0.25 0.25 0 0 1 13.5 22.25A0.25 0.25 0 0 1 13.75 22.5ZM17.75 22.5A0.25 0.25 0 0 1 17.5 22.75A0.25 0.25 0 0 1 17.25 22.5A0.25 0.25 0 0 1 17.5 22.25A0.25 0.25 0 0 1 17.75 22.5ZM18.75 22.5A0.25 0.25 0 0 1 18.5 22.75A0.25 0.25 0 0 1 18.25 22.5A0.25 0.25 0 0 1 18.5 22.25A0.25 0.25 0 0 1 18.75 22.5ZM19.75 22.5A0.25 0.25 0 0 1 19.5 22.75A0.25 0.25 0 0 1 19.25 22.5A0.25 0.25 0 0 1 19.5 22.25A0.25 0.25 0 0 1 19.75 22.5ZM20.75 22.5A0.25 0.25 0 0 1 20.5 22.75A0.25 0.25 0 0 1 20.25 22.5A0.25 0.25 0 0 1 20.5 22.25A0.25 0.25 0 0 1 20.75 22.5ZM22.75 22.5A0.25 0.25 0 0 1 22.5 22.75A0.25 0.25 0 0 1 22.25 22.5A0.25 0.25 0 0 1 22.5 22.25A0.25 0.25 0 0 1 22.75 22.5ZM24.75 22.5A0.25 0.25 0 0 1 24.5 22.75A0.25 0.25 0 0 1 24.25 22.5A0.25 0.25 0 0 1 24.5 22.25A0.25 0.25 0 0 1 24.75 22.5ZM25.75 22.5A0.25 0.25 0 0 1 25.5 22.75A0.25 0.25 0 0 1 25.25 22.5A0.25 0.25 0 0 1 25.5 22.25A0.25 0.25 0 0 1 25.75 22.5ZM27.75 22.5A0.25 0.25 0 0 1 27.5 22.75A0.25 0.25 0 0 1 27.25 22.5A0.25 0.25 0 0 1 27.5 22.25A0.25 0.25 0 0 1 27.75 22.5ZM9.75 23.5A0.25 0.25 0 0 1 9.5 23.75A0.25 0.25 0 0 1 9.25 23.5A0.25 0.25 0 0 1 9.5 23.25A0.25 0.25 0 0 1 9.75 23.5ZM10.75 23.5A0.25 0.25 0 0 1 10.5 23.75A0.25 0.25 0 0 1 10.25 23.5A0.25 0.25 0 0 1 10.5 23.25A0.25 0.25 0 0 1 10.75 23.5ZM18.75 23.5A0.25 0.25 0 0 1 18.5 23.75A0.25 0.25 0 0 1 18.25 23.5A0.25 0.25 0 0 1 18.5 23.25A0.25 0.25 0 0 1 18.75 23.5ZM19.75 23.5A0.25 0.25 0 0 1 19.5 23.75A0.25 0.25 0 0 1 19.25 23.5A0.25 0.25 0 0 1 19.5 23.25A0.25 0.25 0 0 1 19.75 23.5ZM20.75 23.5A0.25 0.25 0 0 1 20.5 23.75A0.25 0.25 0 0 1 20.25 23.5A0.25 0.25 0 0 1 20.5 23.25A0.25 0.25 0 0 1 20.75 23.5ZM24.75 23.5A0.25 0.25 0 0 1 24.5 23.75A0.25 0.25 0 0 1 24.25 23.5A0.25 0.25 0 0 1 24.5 23.25A0.25 0.25 0 0 1 24.75 23.5ZM27.75 23.5A0.25 0.25 0 0 1 27.5 23.75A0.25 0.25 0 0 1 27.25 23.5A0.25 0.25 0 0 1 27.5 23.25A0.25 0.25 0 0 1 27.75 23.5ZM28.75 23.5A0.25 0.25 0 0 1 28.5 23.75A0.25 0.25 0 0 1 28.25 23.5A0.25 0.25 0 0 1 28.5 23.25A0.25 0.25 0 0 1 28.75 23.5ZM10.75 24.5A0.25 0.25 0 0 1 10.5 24.75A0.25 0.25 0 0 1 10.25 24.5A0.25 0.25 0 0 1 10.5 24.25A0.25 0.25 0 0 1 10.75 24.5ZM12.75 24.5A0.25 0.25 0 0 1 12.5 24.75A0.25 0.25 0 0 1 12.25 24.5A0.25 0.25 0 0 1 12.5 24.25A0.25 0.25 0 0 1 12.75 24.5ZM14.75 24.5A0.25 0.25 0 0 1 14.5 24.75A0.25 0.25 0 0 1 14.25 24.5A0.25 0.25 0 0 1 14.5 24.25A0.25 0.25 0 0 1 14.75 24.5ZM17.75 24.5A0.25 0.25 0 0 1 17.5 24.75A0.25 0.25 0 0 1 17.25 24.5A0.25 0.25 0 0 1 17.5 24.25A0.25 0.25 0 0 1 17.75 24.5ZM20.75 24.5A0.25 0.25 0 0 1 20.5 24.75A0.25 0.25 0 0 1 20.25 24.5A0.25 0.25 0 0 1 20.5 24.25A0.25 0.25 0 0 1 20.75 24.5ZM21.75 24.5A0.25 0.25 0 0 1 21.5 24.75A0.25 0.25 0 0 1 21.25 24.5A0.25 0.25 0 0 1 21.5 24.25A0.25 0.25 0 0 1 21.75 24.5ZM22.75 24.5A0.25 0.25 0 0 1 22.5 24.75A0.25 0.25 0 0 1 22.25 24.5A0.25 0.25 0 0 1 22.5 24.25A0.25 0.25 0 0 1 22.75 24.5ZM23.75 24.5A0.25 0.25 0 0 1 23.5 24.75A0.25 0.25 0 0 1 23.25 24.5A0.25 0.25 0 0 1 23.5 24.25A0.25 0.25 0 0 1 23.75 24.5ZM24.75 24.5A0.25 0.25 0 0 1 24.5 24.75A0.25 0.25 0 0 1 24.25 24.5A0.25 0.25 0 0 1 24.5 24.25A0.25 0.25 0 0 1 24.75 24.5ZM26.75 24.5A0.25 0.25 0 0 1 26.5 24.75A0.25 0.25 0 0 1 26.25 24.5A0.25 0.25 0 0 1 26.5 24.25A0.25 0.25 0 0 1 26.75 24.5ZM27.75 24.5A0.25 0.25 0 0 1 27.5 24.75A0.25 0.25 0 0 1 27.25 24.5A0.25 0.25 0 0 1 27.5 24.25A0.25 0.25 0 0 1 27.75 24.5ZM28.75 24.5A0.25 0.25 0 0 1 28.5 24.75A0.25 0.25 0 0 1 28.25 24.5A0.25 0.25 0 0 1 28.5 24.25A0.25 0.25 0 0 1 28.75 24.5ZM8.75 25.5A0.25 0.25 0 0 1 8.5 25.75A0.25 0.25 0 0 1 8.25 25.5A0.25 0.25 0 0 1 8.5 25.25A0.25 0.25 0 0 1 8.75 25.5ZM10.75 25.5A0.25 0.25 0 0 1 10.5 25.75A0.25 0.25 0 0 1 10.25 25.5A0.25 0.25 0 0 1 10.5 25.25A0.25 0.25 0 0 1 10.75 25.5ZM11.75 25.5A0.25 0.25 0 0 1 11.5 25.75A0.25 0.25 0 0 1 11.25 25.5A0.25 0.25 0 0 1 11.5 25.25A0.25 0.25 0 0 1 11.75 25.5ZM12.75 25.5A0.25 0.25 0 0 1 12.5 25.75A0.25 0.25 0 0 1 12.25 25.5A0.25 0.25 0 0 1 12.5 25.25A0.25 0.25 0 0 1 12.75 25.5ZM14.75 25.5A0.25 0.25 0 0 1 14.5 25.75A0.25 0.25 0 0 1 14.25 25.5A0.25 0.25 0 0 1 14.5 25.25A0.25 0.25 0 0 1 14.75 25.5ZM15.75 25.5A0.25 0.25 0 0 1 15.5 25.75A0.25 0.25 0 0 1 15.25 25.5A0.25 0.25 0 0 1 15.5 25.25A0.25 0.25 0 0 1 15.75 25.5ZM16.75 25.5A0.25 0.25 0 0 1 16.5 25.75A0.25 0.25 0 0 1 16.25 25.5A0.25 0.25 0 0 1 16.5 25.25A0.25 0.25 0 0 1 16.75 25.5ZM17.75 25.5A0.25 0.25 0 0 1 17.5 25.75A0.25 0.25 0 0 1 17.25 25.5A0.25 0.25 0 0 1 17.5 25.25A0.25 0.25 0 0 1 17.75 25.5ZM18.75 25.5A0.25 0.25 0 0 1 18.5 25.75A0.25 0.25 0 0 1 18.25 25.5A0.25 0.25 0 0 1 18.5 25.25A0.25 0.25 0 0 1 18.75 25.5ZM21.75 25.5A0.25 0.25 0 0 1 21.5 25.75A0.25 0.25 0 0 1 21.25 25.5A0.25 0.25 0 0 1 21.5 25.25A0.25 0.25 0 0 1 21.75 25.5ZM23.75 25.5A0.25 0.25 0 0 1 23.5 25.75A0.25 0.25 0 0 1 23.25 25.5A0.25 0.25 0 0 1 23.5 25.25A0.25 0.25 0 0 1 23.75 25.5ZM24.75 25.5A0.25 0.25 0 0 1 24.5 25.75A0.25 0.25 0 0 1 24.25 25.5A0.25 0.25 0 0 1 24.5 25.25A0.25 0.25 0 0 1 24.75 25.5ZM26.75 25.5A0.25 0.25 0 0 1 26.5 25.75A0.25 0.25 0 0 1 26.25 25.5A0.25 0.25 0 0 1 26.5 25.25A0.25 0.25 0 0 1 26.75 25.5ZM28.75 25.5A0.25 0.25 0 0 1 28.5 25.75A0.25 0.25 0 0 1 28.25 25.5A0.25 0.25 0 0 1 28.5 25.25A0.25 0.25 0 0 1 28.75 25.5ZM8.75 26.5A0.25 0.25 0 0 1 8.5 26.75A0.25 0.25 0 0 1 8.25 26.5A0.25 0.25 0 0 1 8.5 26.25A0.25 0.25 0 0 1 8.75 26.5ZM9.75 26.5A0.25 0.25 0 0 1 9.5 26.75A0.25 0.25 0 0 1 9.25 26.5A0.25 0.25 0 0 1 9.5 26.25A0.25 0.25 0 0 1 9.75 26.5ZM10.75 26.5A0.25 0.25 0 0 1 10.5 26.75A0.25 0.25 0 0 1 10.25 26.5A0.25 0.25 0 0 1 10.5 26.25A0.25 0.25 0 0 1 10.75 26.5ZM11.75 26.5A0.25 0.25 0 0 1 11.5 26.75A0.25 0.25 0 0 1 11.25 26.5A0.25 0.25 0 0 1 11.5 26.25A0.25 0.25 0 0 1 11.75 26.5ZM13.75 26.5A0.25 0.25 0 0 1 13.5 26.75A0.25 0.25 0 0 1 13.25 26.5A0.25 0.25 0 0 1 13.5 26.25A0.25 0.25 0 0 1 13.75 26.5ZM17.75 26.5A0.25 0.25 0 0 1 17.5 26.75A0.25 0.25 0 0 1 17.25 26.5A0.25 0.25 0 0 1 17.5 26.25A0.25 0.25 0 0 1 17.75 26.5ZM20.75 26.5A0.25 0.25 0 0 1 20.5 26.75A0.25 0.25 0 0 1 20.25 26.5A0.25 0.25 0 0 1 20.5 26.25A0.25 0.25 0 0 1 20.75 26.5ZM23.75 26.5A0.25 0.25 0 0 1 23.5 26.75A0.25 0.25 0 0 1 23.25 26.5A0.25 0.25 0 0 1 23.5 26.25A0.25 0.25 0 0 1 23.75 26.5ZM25.75 26.5A0.25 0.25 0 0 1 25.5 26.75A0.25 0.25 0 0 1 25.25 26.5A0.25 0.25 0 0 1 25.5 26.25A0.25 0.25 0 0 1 25.75 26.5ZM26.75 26.5A0.25 0.25 0 0 1 26.5 26.75A0.25 0.25 0 0 1 26.25 26.5A0.25 0.25 0 0 1 26.5 26.25A0.25 0.25 0 0 1 26.75 26.5ZM28.75 26.5A0.25 0.25 0 0 1 28.5 26.75A0.25 0.25 0 0 1 28.25 26.5A0.25 0.25 0 0 1 28.5 26.25A0.25 0.25 0 0 1 28.75 26.5ZM8.75 27.5A0.25 0.25 0 0 1 8.5 27.75A0.25 0.25 0 0 1 8.25 27.5A0.25 0.25 0 0 1 8.5 27.25A0.25 0.25 0 0 1 8.75 27.5ZM9.75 27.5A0.25 0.25 0 0 1 9.5 27.75A0.25 0.25 0 0 1 9.25 27.5A0.25 0.25 0 0 1 9.5 27.25A0.25 0.25 0 0 1 9.75 27.5ZM11.75 27.5A0.25 0.25 0 0 1 11.5 27.75A0.25 0.25 0 0 1 11.25 27.5A0.25 0.25 0 0 1 11.5 27.25A0.25 0.25 0 0 1 11.75 27.5ZM14.75 27.5A0.25 0.25 0 0 1 14.5 27.75A0.25 0.25 0 0 1 14.25 27.5A0.25 0.25 0 0 1 14.5 27.25A0.25 0.25 0 0 1 14.75 27.5ZM15.75 27.5A0.25 0.25 0 0 1 15.5 27.75A0.25 0.25 0 0 1 15.25 27.5A0.25 0.25 0 0 1 15.5 27.25A0.25 0.25 0 0 1 15.75 27.5ZM16.75 27.5A0.25 0.25 0 0 1 16.5 27.75A0.25 0.25 0 0 1 16.25 27.5A0.25 0.25 0 0 1 16.5 27.25A0.25 0.25 0 0 1 16.75 27.5ZM18.75 27.5A0.25 0.25 0 0 1 18.5 27.75A0.25 0.25 0 0 1 18.25 27.5A0.25 0.25 0 0 1 18.5 27.25A0.25 0.25 0 0 1 18.75 27.5ZM20.75 27.5A0.25 0.25 0 0 1 20.5 27.75A0.25 0.25 0 0 1 20.25 27.5A0.25 0.25 0 0 1 20.5 27.25A0.25 0.25 0 0 1 20.75 27.5ZM21.75 27.5A0.25 0.25 0 0 1 21.5 27.75A0.25 0.25 0 0 1 21.25 27.5A0.25 0.25 0 0 1 21.5 27.25A0.25 0.25 0 0 1 21.75 27.5ZM23.75 27.5A0.25 0.25 0 0 1 23.5 27.75A0.25 0.25 0 0 1 23.25 27.5A0.25 0.25 0 0 1 23.5 27.25A0.25 0.25 0 0 1 23.75 27.5ZM24.75 27.5A0.25 0.25 0 0 1 24.5 27.75A0.25 0.25 0 0 1 24.25 27.5A0.25 0.25 0 0 1 24.5 27.25A0.25 0.25 0 0 1 24.75 27.5ZM25.75 27.5A0.25 0.25 0 0 1 25.5 27.75A0.25 0.25 0 0 1 25.25 27.5A0.25 0.25 0 0 1 25.5 27.25A0.25 0.25 0 0 1 25.75 27.5ZM27.75 27.5A0.25 0.25 0 0 1 27.5 27.75A0.25 0.25 0 0 1 27.25 27.5A0.25 0.25 0 0 1 27.5 27.25A0.25 0.25 0 0 1 27.75 27.5ZM8.75 28.5A0.25 0.25 0 0 1 8.5 28.75A0.25 0.25 0 0 1 8.25 28.5A0.25 0.25 0 0 1 8.5 28.25A0.25 0.25 0 0 1 8.75 28.5ZM12.75 28.5A0.25 0.25 0 0 1 12.5 28.75A0.25 0.25 0 0 1 12.25 28.5A0.25 0.25 0 0 1 12.5 28.25A0.25 0.25 0 0 1 12.75 28.5ZM14.75 28.5A0.25 0.25 0 0 1 14.5 28.75A0.25 0.25 0 0 1 14.25 28.5A0.25 0.25 0 0 1 14.5 28.25A0.25 0.25 0 0 1 14.75 28.5ZM15.75 28.5A0.25 0.25 0 0 1 15.5 28.75A0.25 0.25 0 0 1 15.25 28.5A0.25 0.25 0 0 1 15.5 28.25A0.25 0.25 0 0 1 15.75 28.5ZM19.75 28.5A0.25 0.25 0 0 1 19.5 28.75A0.25 0.25 0 0 1 19.25 28.5A0.25 0.25 0 0 1 19.5 28.25A0.25 0.25 0 0 1 19.75 28.5ZM20.75 28.5A0.25 0.25 0 0 1 20.5 28.75A0.25 0.25 0 0 1 20.25 28.5A0.25 0.25 0 0 1 20.5 28.25A0.25 0.25 0 0 1 20.75 28.5ZM21.75 28.5A0.25 0.25 0 0 1 21.5 28.75A0.25 0.25 0 0 1 21.25 28.5A0.25 0.25 0 0 1 21.5 28.25A0.25 0.25 0 0 1 21.75 28.5ZM25.75 28.5A0.25 0.25 0 0 1 25.5 28.75A0.25 0.25 0 0 1 25.25 28.5A0.25 0.25 0 0 1 25.5 28.25A0.25 0.25 0 0 1 25.75 28.5ZM27.75 28.5A0.25 0.25 0 0 1 27.5 28.75A0.25 0.25 0 0 1 27.25 28.5A0.25 0.25 0 0 1 27.5 28.25A0.25 0.25 0 0 1 27.75 28.5ZM0 0L7 0L7 7L0 7ZM1 1L1 6L6 6L6 1ZM5 3.5A1.5 1.5 0 0 1 3.5 5A1.5 1.5 0 0 1 2 3.5A1.5 1.5 0 0 1 3.5 2A1.5 1.5 0 0 1 5 3.5ZM22 0L29 0L29 7L22 7ZM23 1L23 6L28 6L28 1ZM27 3.5A1.5 1.5 0 0 1 25.5 5A1.5 1.5 0 0 1 24 3.5A1.5 1.5 0 0 1 25.5 2A1.5 1.5 0 0 1 27 3.5ZM0 22L7 22L7 29L0 29ZM1 23L1 28L6 28L6 23ZM5 25.5A1.5 1.5 0 0 1 3.5 27A1.5 1.5 0 0 1 2 25.5A1.5 1.5 0 0 1 3.5 24A1.5 1.5 0 0 1 5 25.5Z" fill="#015e00"/></g></g></svg>
