<?xml version="1.0" encoding="UTF-8"?>
<svg xmlns="http://www.w3.org/2000/svg" version="1.1" width="300" height="300" viewBox="0 0 300 300"><rect x="0" y="0" width="300" height="300" fill="#ffffff"/><g transform="scale(9.677)"><g transform="translate(1,1)"><path fill-rule="evenodd" d="M8.75 0.5A0.25 0.25 0 0 1 8.5 0.75A0.25 0.25 0 0 1 8.25 0.5A0.25 0.25 0 0 1 8.5 0.25A0.25 0.25 0 0 1 8.75 0.5ZM9.75 0.5A0.25 0.25 0 0 1 9.5 0.75A0.25 0.25 0 0 1 9.25 0.5A0.25 0.25 0 0 1 9.5 0.25A0.25 0.25 0 0 1 9.75 0.5ZM10.75 0.5A0.25 0.25 0 0 1 10.5 0.75A0.25 0.25 0 0 1 10.25 0.5A0.25 0.25 0 0 1 10.5 0.25A0.25 0.25 0 0 1 10.75 0.5ZM12.75 0.5A0.25 0.25 0 0 1 12.5 0.75A0.25 0.25 0 0 1 12.25 0.5A0.25 0.25 0 0 1 12.5 0.25A0.25 0.25 0 0 1 12.75 0.5ZM15.75 0.5A0.25 0.25 0 0 1 15.5 0.75A0.25 0.25 0 0 1 15.25 0.5A0.25 0.25 0 0 1 15.5 0.25A0.25 0.25 0 0 1 15.75 0.5ZM17.75 0.5A0.25 0.25 0 0 1 17.5 0.75A0.25 0.25 0 0 1 17.25 0.5A0.25 0.25 0 0 1 17.5 0.25A0.25 0.25 0 0 1 17.75 0.5ZM18.75 0.5A0.25 0.25 0 0 1 18.5 0.75A0.25 0.25 0 0 1 18.25 0.5A0.25 0.25 0 0 1 18.5 0.25A0.25 0.25 0 0 1 18.75 0.5ZM8.75 1.5A0.25 0.25 0 0 1 8.5 1.75A0.25 0.25 0 0 1 8.25 1.5A0.25 0.25 0 0 1 8.5 1.25A0.25 0.25 0 0 1 8.75 1.5ZM9.75 1.5A0.25 0.25 0 0 1 9.5 1.75A0.25 0.25 0 0 1 9.25 1.5A0.25 0.25 0 0 1 9.5 1.25A0.25 0.25 0 0 1 9.75 1.5ZM10.75 1.5A0.25 0.25 0 0 1 10.5 1.75A0.25 0.25 0 0 1 10.25 1.5A0.25 0.25 0 0 1 10.5 1.25A0.25 0.25 0 0 1 10.75 1.5ZM13.75 1.5A0.25 0.25 0 0 1 13.5 1.75A0.25 0.25 0 0 1 13.25 1.5A0.25 0.25 0 0 1 13.5 1.25A0.25 0.25 0 0 1 13.75 1.5ZM14.75 1.5A0.25 0.25 0 0 1 14.5 1.75A0.25 0.25 0 0 1 14.25 1.5A0.25 0.25 0 0 1 14.5 1.25A0.25 0.25 0 0 1 14.75 1.5ZM16.75 1.5A0.25 0.25 0 0 1 16.5 1.75A0.25 0.25 0 0 1 16.25 1.5A0.25 0.25 0 0 1 16.5 1.25A0.25 0.25 0 0 1 16.75 1.5ZM19.75 1.5A0.25 0.25 0 0 1 19.5 1.75A0.25 0.25 0 0 1 19.25 1.5A0.25 0.25 0 0 1 19.5 1.25A0.25 0.25 0 0 1 19.75 1.5ZM8.75 2.5A0.25 0.25 0 0 1 8.5 2.75A0.25 0.25 0 0 1 8.25 2.5A0.25 0.25 0 0 1 8.5 2.25A0.25 0.25 0 0 1 8.75 2.5ZM10.75 2.5A0.25 0.25 0 0 1 10.5 2.75A0.25 0.25 0 0 1 10.25 2.5A0.25 0.25 0 0 1 10.5 2.25A0.25 0.25 0 0 1 10.75 2.5ZM11.75 2.5A0.25 0.25 0 0 1 11.5 2.75A0.25 0.25 0 0 1 11.25 2.5A0.25 0.25 0 0 1 11.5 2.25A0.25 0.25 0 0 1 11.75 2.5ZM15.75 2.5A0.25 0.25 0 0 1 15.5 2.75A0.25 0.25 0 0 1 15.25 2.5A0.25 0.25 0 0 1 15.5 2.25A0.25 0.25 0 0 1 15.75 2.5ZM16.75 2.5A0.25 0.25 0 0 1 16.5 2.75A0.25 0.25 0 0 1 16.25 2.5A0.25 0.25 0 0 1 16.5 2.25A0.25 0.25 0 0 1 16.75 2.5ZM17.75 2.5A0.25 0.25 0 0 1 17.5 2.75A0.25 0.25 0 0 1 17.25 2.5A0.25 0.25 0 0 1 17.5 2.25A0.25 0.25 0 0 1 17.75 2.5ZM18.75 2.5A0.25 0.25 0 0 1 18.5 2.75A0.25 0.25 0 0 1 18.25 2.5A0.25 0.25 0 0 1 18.5 2.25A0.25 0.25 0 0 1 18.75 2.5ZM20.75 2.5A0.25 0.25 0 0 1 20.5 2.75A0.25 0.25 0 0 1 20.25 2.5A0.25 0.25 0 0 1 20.5 2.25A0.25 0.25 0 0 1 20.75 2.5ZM8.75 3.5A0.25 0.25 0 0 1 8.5 3.75A0.25 0.25 0 0 1 8.25 3.5A0.25 0.25 0 0 1 8.5 3.25A0.25 0.25 0 0 1 8.75 3.5ZM9.75 3.5A0.25 0.25 0 0 1 9.5 3.75A0.25 0.25 0 0 1 9.25 3.5A0.25 0.25 0 0 1 9.5 3.25A0.25 0.25 0 0 1 9.75 3.5ZM11.75 3.5A0.25 0.25 0 0 1 11.5 3.75A0.25 0.25 0 0 1 11.25 3.5A0.25 0.25 0 0 1 11.5 3.25A0.25 0.25 0 0 1 11.75 3.5ZM13.75 3.5A0.25 0.25 0 0 1 13.5 3.75A0.25 0.25 0 0 1 13.25 3.5A0.25 0.25 0 0 1 13.5 3.25A0.25 0.25 0 0 1 13.75 3.5ZM15.75 3.5A0.25 0.25 0 0 1 15.5 3.75A0.25 0.25 0 0 1 15.25 3.5A0.25 0.25 0 0 1 15.5 3.25A0.25 0.25 0 0 1 15.75 3.5ZM18.75 3.5A0.25 0.25 0 0 1 18.5 3.75A0.25 0.25 0 0 1 18.25 3.5A0.25 0.25 0 0 1 18.5 3.25A0.25 0.25 0 0 1 18.75 3.5ZM13.75 4.5A0.25 0.25 0 0 1 13.5 4.75A0.25 0.25 0 0 1 13.25 4.5A0.25 0.25 0 0 1 13.5 4.25A0.25 0.25 0 0 1 13.75 4.5ZM15.75 4.5A0.25 0.25 0 0 1 15.5 4.75A0.25 0.25 0 0 1 15.25 4.5A0.25 0.25 0 0 1 15.5 4.25A0.25 0.25 0 0 1 15.75 4.5ZM18.75 4.5A0.25 0.25 0 0 1 18.5 4.75A0.25 0.25 0 0 1 18.25 4.5A0.25 0.25 0 0 1 18.5 4.25A0.25 0.25 0 0 1 18.75 4.5ZM8.75 5.5A0.25 0.25 0 0 1 8.5 5.75A0.25 0.25 0 0 1 8.25 5.5A0.25 0.25 0 0 1 8.5 5.25A0.25 0.25 0 0 1 8.75 5.5ZM11.75 5.5A0.25 0.25 0 0 1 11.5 5.75A0.25 0.25 0 0 1 11.25 5.5A0.25 0.25 0 0 1 11.5 5.25A0.25 0.25 0 0 1 11.75 5.5ZM12.75 5.5A0.25 0.25 0 0 1 12.5 5.75A0.25 0.25 0 0 1 12.25 5.5A0.25 0.25 0 0 1 12.5 5.25A0.25 0.25 0 0 1 12.75 5.5ZM16.75 5.5A0.25 0.25 0 0 1 16.5 5.75A0.25 0.25 0 0 1 16.25 5.5A0.25 0.25 0 0 1 16.5 5.25A0.25 0.25 0 0 1 16.75 5.5ZM17.75 5.5A0.25 0.25 0 0 1 17.5 5.75A0.25 0.25 0 0 1 17.25 5.5A0.25 0.25 0 0 1 17.5 5.25A0.25 0.25 0 0 1 17.75 5.5ZM18.75 5.5A0.25 0.25 0 0 1 18.5 5.75A0.25 0.25 0 0 1 18.25 5.5A0.25 0.25 0 0 1 18.5 5.25A0.25 0.25 0 0 1 18.75 5.5ZM19.75 5.5A0.25 0.25 0 0 1 19.5 5.75A0.25 0.25 0 0 1 19.25 5.5A0.25 0.25 0 0 1 19.5 5.25A0.25 0.25 0 0 1 19.75 5.5ZM8.75 6.5A0.25 0.25 0 0 1 8.5 6.75A0.25 0.25 0 0 1 8.25 6.5A0.25 0.25 0 0 1 8.5 6.25A0.25 0.25 0 0 1 8.75 6.5ZM10.75 6.5A0.25 0.25 0 0 1 10.5 6.75A0.25 0.25 0 0 1 10.25 6.5A0.25 0.25 0 0 1 10.5 6.25A0.25 0.25 0 0 1 10.75 6.5ZM12.75 6.5A0.25 0.25 0 0 1 12.5 6.75A0.25 0.25 0 0 1 12.25 6.5A0.25 0.25 0 0 1 12.5 6.25A0.25 0.25 0 0 1 12.75 6.5ZM14.75 6.5A0.25 0.25 0 0 1 14.5 6.75A0.25 0.25 0 0 1 14.25 6.5A0.25 0.25 0 0 1 14.5 6.25A0.25 0.25 0 0 1 14.75 6.5ZM16.75 6.5A0.25 0.25 0 0 1 16.5 6.75A0.25 0.25 0 0 1 16.25 6.5A0.25 0.25 0 0 1 16.5 6.25A0.25 0.25 0 0 1 16.75 6.5ZM18.75 6.5A0.25 0.25 0 0 1 18.5 6.75A0.25 0.25 0 0 1 18.25 6.5A0.25 0.25 0 0 1 18.5 6.25A0.25 0.25 0 0 1 18.75 6.5ZM20.75 6.5A0.25 0.25 0 0 1 20.5 6.75A0.25 0.25 0 0 1 20.25 6.5A0.25 0.25 0 0 1 20.5 6.25A0.25 0.25 0 0 1 20.75 6.5ZM9.75 7.5A0.25 0.25 0 0 1 9.5 7.75A0.25 0.25 0 0 1 9.25 7.5A0.25 0.25 0 0 1 9.5 7.25A0.25 0.25 0 0 1 9.75 7.5ZM12.75 7.5A0.25 0.25 0 0 1 12.5 7.75A0.25 0.25 0 0 1 12.25 7.5A0.25 0.25 0 0 1 12.5 7.25A0.25 0.25 0 0 1 12.75 7.5ZM14.75 7.5A0.25 0.25 0 0 1 14.5 7.75A0.25 0.25 0 0 1 14.25 7.5A0.25 0.25 0 0 1 14.5 7.25A0.25 0.25 0 0 1 14.75 7.5ZM16.75 7.5A0.25 0.25 0 0 1 16.5 7.75A0.25 0.25 0 0 1 16.25 7.5A0.25 0.25 0 0 1 16.5 7.25A0.25 0.25 0 0 1 16.75 7.5ZM17.75 7.5A0.25 0.25 0 0 1 17.5 7.75A0.25 0.25 0 0 1 17.25 7.5A0.25 0.25 0 0 1 17.5 7.25A0.25 0.25 0 0 1 17.75 7.5ZM20.75 7.5A0.25 0.25 0 0 1 20.5 7.75A0.25 0.25 0 0 1 20.25 7.5A0.25 0.25 0 0 1 20.5 7.25A0.25 0.25 0 0 1 20.75 7.5ZM0.75 8.5A0.25 0.25 0 0 1 0.5 8.75A0.25 0.25 0 0 1 0.25 8.5A0.25 0.25 0 0 1 0.5 8.25A0.25 0.25 0 0 1 0.75 8.5ZM1.75 8.5A0.25 0.25 0 0 1 1.5 8.75A0.25 0.25 0 0 1 1.25 8.5A0.25 0.25 0 0 1 1.5 8.25A0.25 0.25 0 0 1 1.75 8.5ZM4.75 8.5A0.25 0.25 0 0 1 4.5 8.75A0.25 0.25 0 0 1 4.25 8.5A0.25 0.25 0 0 1 4.5 8.25A0.25 0.25 0 0 1 4.75 8.5ZM5.75 8.5A0.25 0.25 0 0 1 5.5 8.75A0.25 0.25 0 0 1 5.25 8.5A0.25 0.25 0 0 1 5.5 8.25A0.25 0.25 0 0 1 5.75 8.5ZM6.75 8.5A0.25 0.25 0 0 1 6.5 8.75A0.25 0.25 0 0 1 6.25 8.5A0.25 0.25 0 0 1 6.5 8.25A0.25 0.25 0 0 1 6.75 8.5ZM11.75 8.5A0.25 0.25 0 0 1 11.5 8.75A0.25 0.25 0 0 1 11.25 8.5A0.25 0.25 0 0 1 11.5 8.25A0.25 0.25 0 0 1 11.75 8.5ZM13.75 8.5A0.25 0.25 0 0 1 13.5 8.75A0.25 0.25 0 0 1 13.25 8.5A0.25 0.25 0 0 1 13.5 8.25A0.25 0.25 0 0 1 13.75 8.5ZM14.75 8.5A0.25 0.25 0 0 1 14.5 8.75A0.25 0.25 0 0 1 14.25 8.5A0.25 0.25 0 0 1 14.5 8.25A0.25 0.25 0 0 1 14.75 8.5ZM16.75 8.5A0.25 0.25 0 0 1 16.5 8.75A0.25 0.25 0 0 1 16.25 8.5A0.25 0.25 0 0 1 16.5 8.25A0.25 0.25 0 0 1 16.75 8.5ZM17.75 8.5A0.25 0.25 0 0 1 17.5 8.75A0.25 0.25 0 0 1 17.25 8.5A0.25 0.25 0 0 1 17.5 8.25A0.25 0.25 0 0 1 17.75 8.5ZM20.75 8.5A0.25 0.25 0 0 1 20.5 8.75A0.25 0.25 0 0 1 20.25 8.5A0.25 0.25 0 0 1 20.5 8.25A0.25 0.25 0 0 1 20.75 8.5ZM23.75 8.5A0.25 0.25 0 0 1 23.5 8.75A0.25 0.25 0 0 1 23.25 8.5A0.25 0.25 0 0 1 23.5 8.25A0.25 0.25 0 0 1 23.75 8.5ZM25.75 8.5A0.25 0.25 0 0 1 25.5 8.75A0.25 0.25 0 0 1 25.25 8.5A0.25 0.25 0 0 1 25.5 8.25A0.25 0.25 0 0 1 25.75 8.5ZM26.75 8.5A0.25 0.25 0 0 1 26.5 8.75A0.25 0.25 0 0 1 26.25 8.5A0.25 0.25 0 0 1 26.5 8.25A0.25 0.25 0 0 1 26.75 8.5ZM27.75 8.5A0.25 0.25 0 0 1 27.5 8.75A0.25 0.25 0 0 1 27.25 8.5A0.25 0.25 0 0 1 27.5 8.25A0.25 0.25 0 0 1 27.75 8.5ZM28.75 8.5A0.25 0.25 0 0 1 28.5 8.75A0.25 0.25 0 0 1 28.25 8.5A0.25 0.25 0 0 1 28.5 8.25A0.25 0.25 0 0 1 28.75 8.5ZM0.75 9.5A0.25 0.25 0 0 1 0.5 9.75A0.25 0.25 0 0 1 0.25 9.5A0.25 0.25 0 0 1 0.5 9.25A0.25 0.25 0 0 1 0.75 9.5ZM3.75 9.5A0.25 0.25 0 0 1 3.5 9.75A0.25 0.25 0 0 1 3.25 9.5A0.25 0.25 0 0 1 3.5 9.25A0.25 0.25 0 0 1 3.75 9.5ZM7.75 9.5A0.25 0.25 0 0 1 7.5 9.75A0.25 0.25 0 0 1 7.25 9.5A0.25 0.25 0 0 1 7.5 9.25A0.25 0.25 0 0 1 7.75 9.5ZM9.75 9.5A0.25 0.25 0 0 1 9.5 9.75A0.25 0.25 0 0 1 9.25 9.5A0.25 0.25 0 0 1 9.5 9.25A0.25 0.25 0 0 1 9.75 9.5ZM10.75 9.5A0.25 0.25 0 0 1 10.5 9.75A0.25 0.25 0 0 1 10.25 9.5A0.25 0.25 0 0 1 10.5 9.25A0.25 0.25 0 0 1 10.75 9.5ZM12.75 9.5A0.25 0.25 0 0 1 12.5 9.75A0.25 0.25 0 0 1 12.25 9.5A0.25 0.25 0 0 1 12.5 9.25A0.25 0.25 0 0 1 12.75 9.5ZM14.75 9.5A0.25 0.25 0 0 1 14.5 9.75A0.25 0.25 0 0 1 14.25 9.5A0.25 0.25 0 0 1 14.5 9.25A0.25 0.25 0 0 1 14.75 9.5ZM15.75 9.5A0.25 0.25 0 0 1 15.5 9.75A0.25 0.25 0 0 1 15.25 9.5A0.25 0.25 0 0 1 15.5 9.25A0.25 0.25 0 0 1 15.75 9.5ZM18.75 9.5A0.25 0.25 0 0 1 18.5 9.75A0.25 0.25 0 0 1 18.25 9.5A0.25 0.25 0 0 1 18.5 9.25A0.25 0.25 0 0 1 18.75 9.5ZM22.75 9.5A0.25 0.25 0 0 1 22.5 9.75A0.25 0.25 0 0 1 22.25 9.5A0.25 0.25 0 0 1 22.5 9.25A0.25 0.25 0 0 1 22.75 9.5ZM23.75 9.5A0.25 0.25 0 0 1 23.5 9.75A0.25 0.25 0 0 1 23.25 9.5A0.25 0.25 0 0 1 23.5 9.25A0.25 0.25 0 0 1 23.75 9.5ZM24.75 9.5A0.25 0.25 0 0 1 24.5 9.75A0.25 0.25 0 0 1 24.25 9.5A0.25 0.25 0 0 1 24.5 9.25A0.25 0.25 0 0 1 24.75 9.5ZM25.75 9.5A0.25 0.25 0 0 1 25.5 9.75A0.25 0.25 0 0 1 25.25 9.5A0.25 0.25 0 0 1 25.5 9.25A0.25 0.25 0 0 1 25.75 9.5ZM26.75 9.5A0.25 0.25 0 0 1 26.5 9.75A0.25 0.25 0 0 1 26.25 9.5A0.25 0.25 0 0 1 26.5 9.25A0.25 0.25 0 0 1 26.75 9.5ZM27.75 9.5A0.25 0.25 0 0 1 27.5 9.75A0.25 0.25 0 0 1 27.25 9.5A0.25 0.25 0 0 1 27.5 9.25A0.25 0.25 0 0 1 27.75 9.5ZM28.75 9.5A0.25 0.25 0 0 1 28.5 9.75A0.25 0.25 0 0 1 28.25 9.5A0.25 0.25 0 0 1 28.5 9.25A0.25 0.25 0 0 1 28.75 9.5ZM2.75 10.5A0.25 0.25 0 0 1 2.5 10.75A0.25 0.25 0 0 1 2.25 10.5A0.25 0.25 0 0 1 2.5 10.25A0.25 0.25 0 0 1 2.75 10.5ZM3.75 10.5A0.25 0.25 0 0 1 3.5 10.75A0.25 0.25 0 0 1 3.25 10.5A0.25 0.25 0 0 1 3.5 10.25A0.25 0.25 0 0 1 3.75 10.5ZM6.75 10.5A0.25 0.25 0 0 1 6.5 10.75A0.25 0.25 0 0 1 6.25 10.5A0.25 0.25 0 0 1 6.5 10.25A0.25 0.25 0 0 1 6.75 10.5ZM8.75 10.5A0.25 0.25 0 0 1 8.5 10.75A0.25 0.25 0 0 1 8.25 10.5A0.25 0.25 0 0 1 8.5 10.25A0.25 0.25 0 0 1 8.75 10.5ZM11.75 10.5A0.25 0.25 0 0 1 11.5 10.75A0.25 0.25 0 0 1 11.25 10.5A0.25 0.25 0 0 1 11.5 10.25A0.25 0.25 0 0 1 11.75 10.5ZM12.75 10.5A0.25 0.25 0 0 1 12.5 10.75A0.25 0.25 0 0 1 12.25 10.5A0.25 0.25 0 0 1 12.5 10.25A0.25 0.25 0 0 1 12.75 10.5ZM13.75 10.5A0.25 0.25 0 0 1 13.5 10.75A0.25 0.25 0 0 1 13.25 10.5A0.25 0.25 0 0 1 13.5 10.25A0.25 0.25 0 0 1 13.75 10.5ZM14.75 10.5A0.25 0.25 0 0 1 14.5 10.75A0.25 0.25 0 0 1 14.25 10.5A0.25 0.25 0 0 1 14.5 10.25A0.25 0.25 0 0 1 14.75 10.5ZM15.75 10.5A0.25 0.25 0 0 1 15.5 10.75A0.25 0.25 0 0 1 15.25 10.5A0.25 0.25 0 0 1 15.5 10.25A0.25 0.25 0 0 1 15.75 10.5ZM17.75 10.5A0.25 0.25 0 0 1 17.5 10.75A0.25 0.25 0 0 1 17.25 10.5A0.25 0.25 0 0 1 17.5 10.25A0.25 0.25 0 0 1 17.75 10.5ZM18.75 10.5A0.25 0.25 0 0 1 18.5 10.75A0.25 0.25 0 0 1 18.25 10.5A0.25 0.25 0 0 1 18.5 10.25A0.25 0.25 0 0 1 18.75 10.5ZM20.75 10.5A0.25 0.25 0 0 1 20.5 10.75A0.25 0.25 0 0 1 20.25 10.5A0.25 0.25 0 0 1 20.5 10.25A0.25 0.25 0 0 1 20.75 10.5ZM22.75 10.5A0.25 0.25 0 0 1 22.5 10.75A0.25 0.25 0 0 1 22.25 10.5A0.25 0.25 0 0 1 22.5 10.25A0.25 0.25 0 0 1 22.75 10.5ZM23.75 10.5A0.25 0.25 0 0 1 23.5 10.75A0.25 0.25 0 0 1 23.25 10.5A0.25 0.25 0 0 1 23.5 10.25A0.25 0.25 0 0 1 23.75 10.5ZM28.75 10.5A0.25 0.25 0 0 1 28.5 10.75A0.25 0.25 0 0 1 28.25 10.5A0.25 0.25 0 0 1 28.5 10.25A0.25 0.25 0 0 1 28.75 10.5ZM1.75 11.5A0.25 0.25 0 0 1 1.5 11.75A0.25 0.25 0 0 1 1.25 11.5A0.25 0.25 0 0 1 1.5 11.25A0.25 0.25 0 0 1 1.75 11.5ZM2.75 11.5A0.25 0.25 0 0 1 2.5 11.75A0.25 0.25 0 0 1 2.25 11.5A0.25 0.25 0 0 1 2.5 11.25A0.25 0.25 0 0 1 2.75 11.5ZM4.75 11.5A0.25 0.25 0 0 1 4.5 11.75A0.25 0.25 0 0 1 4.25 11.5A0.25 0.25 0 0 1 4.5 11.25A0.25 0.25 0 0 1 4.75 11.5ZM7.75 11.5A0.25 0.25 0 0 1 7.5 11.75A0.25 0.25 0 0 1 7.25 11.5A0.25 0.25 0 0 1 7.5 11.25A0.25 0.25 0 0 1 7.75 11.5ZM10.75 11.5A0.25 0.25 0 0 1 10.5 11.75A0.25 0.25 0 0 1 10.25 11.5A0.25 0.25 0 0 1 10.5 11.25A0.25 0.25 0 0 1 10.75 11.5ZM11.75 11.5A0.25 0.25 0 0 1 11.5 11.75A0.25 0.25 0 0 1 11.25 11.5A0.25 0.25 0 0 1 11.5 11.25A0.25 0.25 0 0 1 11.75 11.5ZM13.75 11.5A0.25 0.25 0 0 1 13.5 11.75A0.25 0.25 0 0 1 13.25 11.5A0.25 0.25 0 0 1 13.5 11.25A0.25 0.25 0 0 1 13.75 11.5ZM15.75 11.5A0.25 0.25 0 0 1 15.5 11.75A0.25 0.25 0 0 1 15.25 11.5A0.25 0.25 0 0 1 15.5 11.25A0.25 0.25 0 0 1 15.75 11.5ZM16.75 11.5A0.25 0.25 0 0 1 16.5 11.75A0.25 0.25 0 0 1 16.25 11.5A0.25 0.25 0 0 1 16.5 11.25A0.25 0.25 0 0 1 16.75 11.5ZM17.75 11.5A0.25 0.25 0 0 1 17.5 11.75A0.25 0.25 0 0 1 17.25 11.5A0.25 0.25 0 0 1 17.5 11.25A0.25 0.25 0 0 1 17.75 11.5ZM18.75 11.5A0.25 0.25 0 0 1 18.5 11.75A0.25 0.25 0 0 1 18.25 11.5A0.25 0.25 0 0 1 18.5 11.25A0.25 0.25 0 0 1 18.75 11.5ZM19.75 11.5A0.25 0.25 0 0 1 19.5 11.75A0.25 0.25 0 0 1 19.25 11.5A0.25 0.25 0 0 1 19.5 11.25A0.25 0.25 0 0 1 19.75 11.5ZM20.75 11.5A0.25 0.25 0 0 1 20.5 11.75A0.25 0.25 0 0 1 20.25 11.5A0.25 0.25 0 0 1 20.5 11.25A0.25 0.25 0 0 1 20.75 11.5ZM22.75 11.5A0.25 0.25 0 0 1 22.5 11.75A0.25 0.25 0 0 1 22.25 11.5A0.25 0.25 0 0 1 22.5 11.25A0.25 0.25 0 0 1 22.75 11.5ZM24.75 11.5A0.25 0.25 0 0 1 24.5 11.75A0.25 0.25 0 0 1 24.25 11.5A0.25 0.25 0 0 1 24.5 11.25A0.25 0.25 0 0 1 24.75 11.5ZM25.75 11.5A0.25 0.25 0 0 1 25.5 11.75A0.25 0.25 0 0 1 25.25 11.5A0.25 0.25 0 0 1 25.5 11.25A0.25 0.25 0 0 1 25.75 11.5ZM27.75 11.5A0.25 0.25 0 0 1 27.5 11.75A0.25 0.25 0 0 1 27.25 11.5A0.25 0.25 0 0 1 27.5 11.25A0.25 0.25 0 0 1 27.75 11.5ZM28.75 11.5A0.25 0.25 0 0 1 28.5 11.75A0.25 0.25 0 0 1 28.25 11.5A0.25 0.25 0 0 1 28.5 11.25A0.25 0.25 0 0 1 28.75 11.5ZM0.75 12.5A0.25 0.25 0 0 1 0.5 12.75A0.25 0.25 0 0 1 0.25 12.5A0.25 0.25 0 0 1 0.5 12.25A0.25 0.25 0 0 1 0.75 12.5ZM3.75 12.5A0.25 0.25 0 0 1 3.5 12.75A0.25 0.25 0 0 1 3.25 12.5A0.25 0.25 0 0 1 3.5 12.25A0.25 0.25 0 0 1 3.75 12.5ZM4.75 12.5A0.25 0.25 0 0 1 4.5 12.75A0.25 0.25 0 0 1 4.25 12.5A0.25 0.25 0 0 1 4.5 12.25A0.25 0.25 0 0 1 4.75 12.5ZM5.75 12.5A0.25 0.25 0 0 1 5.5 12.75A0.25 0.25 0 0 1 5.25 12.5A0.25 0.25 0 0 1 5.5 12.25A0.25 0.25 0 0 1 5.75 12.5ZM6.75 12.5A0.25 0.25 0 0 1 6.5 12.75A0.25 0.25 0 0 1 6.25 12.5A0.25 0.25 0 0 1 6.5 12.25A0.25 0.25 0 0 1 6.75 12.5ZM8.75 12.5A0.25 0.25 0 0 1 8.5 12.75A0.25 0.25 0 0 1 8.25 12.5A0.25 0.25 0 0 1 8.5 12.25A0.25 0.25 0 0 1 8.75 12.5ZM10.75 12.5A0.25 0.25 0 0 1 10.5 12.75A0.25 0.25 0 0 1 10.25 12.5A0.25 0.25 0 0 1 10.5 12.25A0.25 0.25 0 0 1 10.75 12.5ZM12.75 12.5A0.25 0.25 0 0 1 12.5 12.75A0.25 0.25 0 0 1 12.25 12.5A0.25 0.25 0 0 1 12.5 12.25A0.25 0.25 0 0 1 12.75 12.5ZM13.75 12.5A0.25 0.25 0 0 1 13.5 12.75A0.25 0.25 0 0 1 13.25 12.5A0.25 0.25 0 0 1 13.5 12.25A0.25 0.25 0 0 1 13.75 12.5ZM15.75 12.5A0.25 0.25 0 0 1 15.5 12.75A0.25 0.25 0 0 1 15.25 12.5A0.25 0.25 0 0 1 15.5 12.25A0.25 0.25 0 0 1 15.75 12.5ZM16.75 12.5A0.25 0.25 0 0 1 16.5 12.75A0.25 0.25 0 0 1 16.25 12.5A0.25 0.25 0 0 1 16.5 12.25A0.25 0.25 0 0 1 16.75 12.5ZM17.75 12.5A0.25 0.25 0 0 1 17.5 12.75A0.25 0.25 0 0 1 17.25 12.5A0.25 0.25 0 0 1 17.5 12.25A0.25 0.25 0 0 1 17.75 12.5ZM20.75 12.5A0.25 0.25 0 0 1 20.5 12.75A0.25 0.25 0 0 1 20.25 12.5A0.25 0.25 0 0 1 20.5 12.25A0.25 0.25 0 0 1 20.75 12.5ZM21.75 12.5A0.25 0.25 0 0 1 21.5 12.75A0.25 0.25 0 0 1 21.25 12.5A0.25 0.25 0 0 1 21.5 12.25A0.25 0.25 0 0 1 21.75 12.5ZM27.75 12.5A0.25 0.25 0 0 1 27.5 12.75A0.25 0.25 0 0 1 27.25 12.5A0.25 0.25 0 0 1 27.5 12.25A0.25 0.25 0 0 1 27.75 12.5ZM0.75 13.5A0.25 0.25 0 0 1 0.5 13.75A0.25 0.25 0 0 1 0.25 13.5A0.25 0.25 0 0 1 0.5 13.25A0.25 0.25 0 0 1 0.75 13.5ZM1.75 13.5A0.25 0.25 0 0 1 1.5 13.75A0.25 0.25 0 0 1 1.25 13.5A0.25 0.25 0 0 1 1.5 13.25A0.25 0.25 0 0 1 1.75 13.5ZM2.75 13.5A0.25 0.25 0 0 1 2.5 13.75A0.25 0.25 0 0 1 2.25 13.5A0.25 0.25 0 0 1 2.5 13.25A0.25 0.25 0 0 1 2.75 13.5ZM4.75 13.5A0.25 0.25 0 0 1 4.5 13.75A0.25 0.25 0 0 1 4.25 13.5A0.25 0.25 0 0 1 4.5 13.25A0.25 0.25 0 0 1 4.75 13.5ZM8.75 13.5A0.25 0.25 0 0 1 8.5 13.75A0.25 0.25 0 0 1 8.25 13.5A0.25 0.25 0 0 1 8.5 13.25A0.25 0.25 0 0 1 8.75 13.5ZM9.75 13.5A0.25 0.25 0 0 1 9.5 13.75A0.25 0.25 0 0 1 9.25 13.5A0.25 0.25 0 0 1 9.5 13.25A0.25 0.25 0 0 1 9.75 13.5ZM13.75 13.5A0.25 0.25 0 0 1 13.5 13.75A0.25 0.25 0 0 1 13.25 13.5A0.25 0.25 0 0 1 13.5 13.25A0.25 0.25 0 0 1 13.75 13.5ZM14.75 13.5A0.25 0.25 0 0 1 14.5 13.75A0.25 0.25 0 0 1 14.25 13.5A0.25 0.25 0 0 1 14.5 13.25A0.25 0.25 0 0 1 14.75 13.5ZM15.75 13.5A0.25 0.25 0 0 1 15.5 13.75A0.25 0.25 0 0 1 15.25 13.5A0.25 0.25 0 0 1 15.5 13.25A0.25 0.25 0 0 1 15.75 13.5ZM20.75 13.5A0.25 0.25 0 0 1 20.5 13.75A0.25 0.25 0 0 1 20.25 13.5A0.25 0.25 0 0 1 20.5 13.25A0.25 0.25 0 0 1 20.75 13.5ZM22.75 13.5A0.25 0.25 0 0 1 22.5 13.75A0.25 0.25 0 0 1 22.25 13.5A0.25 0.25 0 0 1 22.5 13.25A0.25 0.25 0 0 1 22.75 13.5ZM23.75 13.5A0.25 0.25 0 0 1 23.5 13.75A0.25 0.25 0 0 1 23.25 13.5A0.25 0.25 0 0 1 23.5 13.25A0.25 0.25 0 0 1 23.75 13.5ZM24.75 13.5A0.25 0.25 0 0 1 24.5 13.75A0.25 0.25 0 0 1 24.25 13.5A0.25 0.25 0 0 1 24.5 13.25A0.25 0.25 0 0 1 24.75 13.5ZM25.75 13.5A0.25 0.25 0 0 1 25.5 13.75A0.25 0.25 0 0 1 25.25 13.5A0.25 0.25 0 0 1 25.5 13.25A0.25 0.25 0 0 1 25.75 13.5ZM26.75 13.5A0.25 0.25 0 0 1 26.5 13.75A0.25 0.25 0 0 1 26.25 13.5A0.25 0.25 0 0 1 26.5 13.25A0.25 0.25 0 0 1 26.75 13.5ZM27.75 13.5A0.25 0.25 0 0 1 27.5 13.75A0.25 0.25 0 0 1 27.25 13.5A0.25 0.25 0 0 1 27.5 13.25A0.25 0.25 0 0 1 27.75 13.5ZM28.75 13.5A0.25 0.25 0 0 1 28.5 13.75A0.25 0.25 0 0 1 28.25 13.5A0.25 0.25 0 0 1 28.5 13.25A0.25 0.25 0 0 1 28.75 13.5ZM1.75 14.5A0.25 0.25 0 0 1 1.5 14.75A0.25 0.25 0 0 1 1.25 14.5A0.25 0.25 0 0 1 1.5 14.25A0.25 0.25 0 0 1 1.75 14.5ZM2.75 14.5A0.25 0.25 0 0 1 2.5 14.75A0.25 0.25 0 0 1 2.25 14.5A0.25 0.25 0 0 1 2.5 14.25A0.25 0.25 0 0 1 2.75 14.5ZM4.75 14.5A0.25 0.25 0 0 1 4.5 14.75A0.25 0.25 0 0 1 4.25 14.5A0.25 0.25 0 0 1 4.5 14.25A0.25 0.25 0 0 1 4.75 14.5ZM6.75 14.5A0.25 0.25 0 0 1 6.5 14.75A0.25 0.25 0 0 1 6.25 14.5A0.25 0.25 0 0 1 6.5 14.25A0.25 0.25 0 0 1 6.75 14.5ZM10.75 14.5A0.25 0.25 0 0 1 10.5 14.75A0.25 0.25 0 0 1 10.25 14.5A0.25 0.25 0 0 1 10.5 14.25A0.25 0.25 0 0 1 10.75 14.5ZM15.75 14.5A0.25 0.25 0 0 1 15.5 14.75A0.25 0.25 0 0 1 15.25 14.5A0.25 0.25 0 0 1 15.5 14.25A0.25 0.25 0 0 1 15.75 14.5ZM16.75 14.5A0.25 0.25 0 0 1 16.5 14.75A0.25 0.25 0 0 1 16.25 14.5A0.25 0.25 0 0 1 16.5 14.25A0.25 0.25 0 0 1 16.75 14.5ZM20.75 14.5A0.25 0.25 0 0 1 20.5 14.75A0.25 0.25 0 0 1 20.25 14.5A0.25 0.25 0 0 1 20.5 14.25A0.25 0.25 0 0 1 20.75 14.5ZM22.75 14.5A0.25 0.25 0 0 1 22.5 14.75A0.25 0.25 0 0 1 22.25 14.5A0.25 0.25 0 0 1 22.5 14.25A0.25 0.25 0 0 1 22.75 14.5ZM23.75 14.5A0.25 0.25 0 0 1 23.5 14.75A0.25 0.25 0 0 1 23.25 14.5A0.25 0.25 0 0 1 23.5 14.25A0.25 0.25 0 0 1 23.75 14.5ZM24.75 14.5A0.25 0.25 0 0 1 24.5 14.75A0.25 0.25 0 0 1 24.25 14.5A0.25 0.25 0 0 1 24.5 14.25A0.25 0.25 0 0 1 24.75 14.5ZM25.75 14.5A0.25 0.25 0 0 1 25.5 14.75A0.25 0.25 0 0 1 25.25 14.5A0.25 0.25 0 0 1 25.5 14.25A0.25 0.25 0 0 1 25.75 14.5ZM26.75 14.5A0.25 0.25 0 0 1 26.5 14.75A0.25 0.25 0 0 1 26.25 14.5A0.25 0.25 0 0 1 26.5 14.25A0.25 0.25 0 0 1 26.75 14.5ZM28.75 14.5A0.25 0.25 0 0 1 28.5 14.75A0.25 0.25 0 0 1 28.25 14.5A0.25 0.25 0 0 1 28.5 14.25A0.25 0.25 0 0 1 28.75 14.5ZM2.75 15.5A0.25 0.25 0 0 1 2.5 15.75A0.25 0.25 0 0 1 2.25 15.5A0.25 0.25 0 0 1 2.5 15.25A0.25 0.25 0 0 1 2.75 15.5ZM3.75 15.5A0.25 0.25 0 0 1 3.5 15.75A0.25 0.25 0 0 1 3.25 15.5A0.25 0.25 0 0 1 3.5 15.25A0.25 0.25 0 0 1 3.75 15.5ZM5.75 15.5A0.25 0.25 0 0 1 5.5 15.75A0.25 0.25 0 0 1 5.25 15.5A0.25 0.25 0 0 1 5.5 15.25A0.25 0.25 0 0 1 5.75 15.5ZM9.75 15.5A0.25 0.25 0 0 1 9.5 15.75A0.25 0.25 0 0 1 9.25 15.5A0.25 0.25 0 0 1 9.5 15.25A0.25 0.25 0 0 1 9.75 15.5ZM12.75 15.5A0.25 0.25 0 0 1 12.5 15.75A0.25 0.25 0 0 1 12.25 15.5A0.25 0.25 0 0 1 12.5 15.25A0.25 0.25 0 0 1 12.75 15.5ZM14.75 15.5A0.25 0.25 0 0 1 14.5 15.75A0.25 0.25 0 0 1 14.25 15.5A0.25 0.25 0 0 1 14.5 15.25A0.25 0.25 0 0 1 14.75 15.5ZM16.75 15.5A0.25 0.25 0 0 1 16.5 15.75A0.25 0.25 0 0 1 16.25 15.5A0.25 0.25 0 0 1 16.5 15.25A0.25 0.25 0 0 1 16.75 15.5ZM17.75 15.5A0.25 0.25 0 0 1 17.5 15.75A0.25 0.25 0 0 1 17.25 15.5A0.25 0.25 0 0 1 17.5 15.25A0.25 0.25 0 0 1 17.75 15.5ZM20.75 15.5A0.25 0.25 0 0 1 20.5 15.75A0.25 0.25 0 0 1 20.25 15.5A0.25 0.25 0 0 1 20.5 15.25A0.25 0.25 0 0 1 20.75 15.5ZM22.75 15.5A0.25 0.25 0 0 1 22.5 15.75A0.25 0.25 0 0 1 22.25 15.5A0.25 0.25 0 0 1 22.5 15.25A0.25 0.25 0 0 1 22.75 15.5ZM27.75 15.5A0.25 0.25 0 0 1 27.5 15.75A0.25 0.25 0 0 1 27.25 15.5A0.25 0.25 0 0 1 27.5 15.25A0.25 0.25 0 0 1 27.75 15.5ZM28.75 15.5A0.25 0.25 0 0 1 28.5 15.75A0.25 0.25 0 0 1 28.25 15.5A0.25 0.25 0 0 1 28.5 15.25A0.25 0.25 0 0 1 28.75 15.5ZM0.75 16.5A0.25 0.25 0 0 1 0.5 16.75A0.25 0.25 0 0 1 0.25 16.5A0.25 0.25 0 0 1 0.5 16.25A0.25 0.25 0 0 1 0.75 16.5ZM4.75 16.5A0.25 0.25 0 0 1 4.5 16.75A0.25 0.25 0 0 1 4.25 16.5A0.25 0.25 0 0 1 4.5 16.25A0.25 0.25 0 0 1 4.75 16.5ZM6.75 16.5A0.25 0.25 0 0 1 6.5 16.75A0.25 0.25 0 0 1 6.25 16.5A0.25 0.25 0 0 1 6.5 16.25A0.25 0.25 0 0 1 6.75 16.5ZM7.75 16.5A0.25 0.25 0 0 1 7.5 16.75A0.25 0.25 0 0 1 7.25 16.5A0.25 0.25 0 0 1 7.5 16.25A0.25 0.25 0 0 1 7.75 16.5ZM8.75 16.5A0.25 0.25 0 0 1 8.5 16.75A0.25 0.25 0 0 1 8.25 16.5A0.25 0.25 0 0 1 8.5 16.25A0.25 0.25 0 0 1 8.75 16.5ZM9.75 16.5A0.25 0.25 0 0 1 9.5 16.75A0.25 0.25 0 0 1 9.25 16.5A0.25 0.25 0 0 1 9.5 16.25A0.25 0.25 0 0 1 9.75 16.5ZM10.75 16.5A0.25 0.25 0 0 1 10.5 16.75A0.25 0.25 0 0 1 10.25 16.5A0.25 0.25 0 0 1 10.5 16.25A0.25 0.25 0 0 1 10.75 16.5ZM11.75 16.5A0.25 0.25 0 0 1 11.5 16.75A0.25 0.25 0 0 1 11.25 16.5A0.25 0.25 0 0 1 11.5 16.25A0.25 0.25 0 0 1 11.75 16.5ZM13.75 16.5A0.25 0.25 0 0 1 13.5 16.75A0.25 0.25 0 0 1 13.25 16.5A0.25 0.25 0 0 1 13.5 16.25A0.25 0.25 0 0 1 13.75 16.5ZM14.75 16.5A0.25 0.25 0 0 1 14.5 16.75A0.25 0.25 0 0 1 14.25 16.5A0.25 0.25 0 0 1 14.5 16.25A0.25 0.25 0 0 1 14.75 16.5ZM16.75 16.5A0.25 0.25 0 0 1 16.5 16.75A0.25 0.25 0 0 1 16.25 16.5A0.25 0.25 0 0 1 16.5 16.25A0.25 0.25 0 0 1 16.75 16.5ZM17.75 16.5A0.25 0.25 0 0 1 17.5 16.75A0.25 0.25 0 0 1 17.25 16.5A0.25 0.25 0 0 1 17.5 16.25A0.25 0.25 0 0 1 17.75 16.5ZM18.75 16.5A0.25 0.25 0 0 1 18.5 16.75A0.25 0.25 0 0 1 18.25 16.5A0.25 0.25 0 0 1 18.5 16.25A0.25 0.25 0 0 1 18.75 16.5ZM19.75 16.5A0.25 0.25 0 0 1 19.5 16.75A0.25 0.25 0 0 1 19.25 16.5A0.25 0.25 0 0 1 19.5 16.25A0.25 0.25 0 0 1 19.75 16.5ZM20.75 16.5A0.25 0.25 0 0 1 20.5 16.75A0.25 0.25 0 0 1 20.25 16.5A0.25 0.25 0 0 1 20.5 16.25A0.25 0.25 0 0 1 20.75 16.5ZM27.75 16.5A0.25 0.25 0 0 1 27.5 16.75A0.25 0.25 0 0 1 27.25 16.5A0.25 0.25 0 0 1 27.5 16.25A0.25 0.25 0 0 1 27.75 16.5ZM0.75 17.5A0.25 0.25 0 0 1 0.5 17.75A0.25 0.25 0 0 1 0.25 17.5A0.25 0.25 0 0 1 0.5 17.25A0.25 0.25 0 0 1 0.75 17.5ZM1.75 17.5A0.25 0.25 0 0 1 1.5 17.75A0.25 0.25 0 0 1 1.25 17.5A0.25 0.25 0 0 1 1.5 17.25A0.25 0.25 0 0 1 1.75 17.5ZM2.75 17.5A0.25 0.25 0 0 1 2.5 17.75A0.25 0.25 0 0 1 2.25 17.5A0.25 0.25 0 0 1 2.5 17.25A0.25 0.25 0 0 1 2.75 17.5ZM4.75 17.5A0.25 0.25 0 0 1 4.5 17.75A0.25 0.25 0 0 1 4.25 17.5A0.25 0.25 0 0 1 4.5 17.25A0.25 0.25 0 0 1 4.75 17.5ZM9.75 17.5A0.25 0.25 0 0 1 9.5 17.75A0.25 0.25 0 0 1 9.25 17.5A0.25 0.25 0 0 1 9.5 17.25A0.25 0.25 0 0 1 9.75 17.5ZM12.75 17.5A0.25 0.25 0 0 1 12.5 17.75A0.25 0.25 0 0 1 12.25 17.5A0.25 0.25 0 0 1 12.5 17.25A0.25 0.25 0 0 1 12.75 17.5ZM15.75 17.5A0.25 0.25 0 0 1 15.5 17.75A0.25 0.25 0 0 1 15.25 17.5A0.25 0.25 0 0 1 15.5 17.25A0.25 0.25 0 0 1 15.75 17.5ZM17.75 17.5A0.25 0.25 0 0 1 17.5 17.75A0.25 0.25 0 0 1 17.25 17.5A0.25 0.25 0 0 1 17.5 17.25A0.25 0.25 0 0 1 17.75 17.5ZM18.75 17.5A0.25 0.25 0 0 1 18.5 17.75A0.25 0.25 0 0 1 18.25 17.5A0.25 0.25 0 0 1 18.5 17.25A0.25 0.25 0 0 1 18.75 17.5ZM22.75 17.5A0.25 0.25 0 0 1 22.5 17.75A0.25 0.25 0 0 1 22.25 17.5A0.25 0.25 0 0 1 22.5 17.25A0.25 0.25 0 0 1 22.75 17.5ZM23.75 17.5A0.25 0.25 0 0 1 23.5 17.75A0.25 0.25 0 0 1 23.25 17.5A0.25 0.25 0 0 1 23.5 17.25A0.25 0.25 0 0 1 23.75 17.5ZM24.75 17.5A0.25 0.25 0 0 1 24.5 17.75A0.25 0.25 0 0 1 24.25 17.5A0.25 0.25 0 0 1 24.5 17.25A0.25 0.25 0 0 1 24.75 17.5ZM25.75 17.5A0.25 0.25 0 0 1 25.5 17.75A0.25 0.25 0 0 1 25.25 17.5A0.25 0.25 0 0 1 25.5 17.25A0.25 0.25 0 0 1 25.75 17.5ZM27.75 17.5A0.25 0.25 0 0 1 27.5 17.75A0.25 0.25 0 0 1 27.25 17.5A0.25 0.25 0 0 1 27.5 17.25A0.25 0.25 0 0 1 27.75 17.5ZM28.75 17.5A0.25 0.25 0 0 1 28.5 17.75A0.25 0.25 0 0 1 28.25 17.5A0.25 0.25 0 0 1 28.5 17.25A0.25 0.25 0 0 1 28.75 17.5ZM3.75 18.5A0.25 0.25 0 0 1 3.5 18.75A0.25 0.25 0 0 1 3.25 18.5A0.25 0.25 0 0 1 3.5 18.25A0.25 0.25 0 0 1 3.75 18.5ZM6.75 18.5A0.25 0.25 0 0 1 6.5 18.75A0.25 0.25 0 0 1 6.25 18.5A0.25 0.25 0 0 1 6.5 18.25A0.25 0.25 0 0 1 6.75 18.5ZM7.75 18.5A0.25 0.25 0 0 1 7.5 18.75A0.25 0.25 0 0 1 7.25 18.5A0.25 0.25 0 0 1 7.5 18.25A0.25 0.25 0 0 1 7.75 18.5ZM11.75 18.5A0.25 0.25 0 0 1 11.5 18.75A0.25 0.25 0 0 1 11.25 18.5A0.25 0.25 0 0 1 11.5 18.25A0.25 0.25 0 0 1 11.75 18.5ZM12.75 18.5A0.25 0.25 0 0 1 12.5 18.75A0.25 0.25 0 0 1 12.25 18.5A0.25 0.25 0 0 1 12.5 18.25A0.25 0.25 0 0 1 12.75 18.5ZM13.75 18.5A0.25 0.25 0 0 1 13.5 18.75A0.25 0.25 0 0 1 13.25 18.5A0.25 0.25 0 0 1 13.5 18.25A0.25 0.25 0 0 1 13.75 18.5ZM14.75 18.5A0.25 0.25 0 0 1 14.5 18.75A0.25 0.25 0 0 1 14.25 18.5A0.25 0.25 0 0 1 14.5 18.25A0.25 0.25 0 0 1 14.75 18.5ZM15.75 18.5A0.25 0.25 0 0 1 15.5 18.75A0.25 0.25 0 0 1 15.25 18.5A0.25 0.25 0 0 1 15.5 18.25A0.25 0.25 0 0 1 15.75 18.5ZM17.75 18.5A0.25 0.25 0 0 1 17.5 18.75A0.25 0.25 0 0 1 17.25 18.5A0.25 0.25 0 0 1 17.5 18.25A0.25 0.25 0 0 1 17.75 18.5ZM18.75 18.5A0.25 0.25 0 0 1 18.5 18.75A0.25 0.25 0 0 1 18.25 18.5A0.25 0.25 0 0 1 18.5 18.25A0.25 0.25 0 0 1 18.75 18.5ZM26.75 18.5A0.25 0.25 0 0 1 26.5 18.75A0.25 0.25 0 0 1 26.25 18.5A0.25 0.25 0 0 1 26.5 18.25A0.25 0.25 0 0 1 26.75 18.5ZM28.75 18.5A0.25 0.25 0 0 1 28.5 18.75A0.25 0.25 0 0 1 28.25 18.5A0.25 0.25 0 0 1 28.5 18.25A0.25 0.25 0 0 1 28.75 18.5ZM2.75 19.5A0.25 0.25 0 0 1 2.5 19.75A0.25 0.25 0 0 1 2.25 19.5A0.25 0.25 0 0 1 2.5 19.25A0.25 0.25 0 0 1 2.75 19.5ZM4.75 19.5A0.25 0.25 0 0 1 4.5 19.75A0.25 0.25 0 0 1 4.25 19.5A0.25 0.25 0 0 1 4.5 19.25A0.25 0.25 0 0 1 4.75 19.5ZM9.75 19.5A0.25 0.25 0 0 1 9.5 19.75A0.25 0.25 0 0 1 9.25 19.5A0.25 0.25 0 0 1 9.5 19.25A0.25 0.25 0 0 1 9.75 19.5ZM11.75 19.5A0.25 0.25 0 0 1 11.5 19.75A0.25 0.25 0 0 1 11.25 19.5A0.25 0.25 0 0 1 11.5 19.25A0.25 0.25 0 0 1 11.75 19.5ZM13.75 19.5A0.25 0.25 0 0 1 13.5 19.75A0.25 0.25 0 0 1 13.25 19.5A0.25 0.25 0 0 1 13.5 19.25A0.25 0.25 0 0 1 13.75 19.5ZM17.75 19.5A0.25 0.25 0 0 1 17.5 19.75A0.25 0.25 0 0 1 17.25 19.5A0.25 0.25 0 0 1 17.5 19.25A0.25 0.25 0 0 1 17.75 19.5ZM18.75 19.5A0.25 0.25 0 0 1 18.5 19.75A0.25 0.25 0 0 1 18.25 19.5A0.25 0.25 0 0 1 18.5 19.25A0.25 0.25 0 0 1 18.75 19.5ZM20.75 19.5A0.25 0.25 0 0 1 20.5 19.75A0.25 0.25 0 0 1 20.25 19.5A0.25 0.25 0 0 1 20.5 19.25A0.25 0.25 0 0 1 20.75 19.5ZM21.75 19.5A0.25 0.25 0 0 1 21.5 19.75A0.25 0.25 0 0 1 21.25 19.5A0.25 0.25 0 0 1 21.5 19.25A0.25 0.25 0 0 1 21.75 19.5ZM23.75 19.5A0.25 0.25 0 0 1 23.5 19.75A0.25 0.25 0 0 1 23.25 19.5A0.25 0.25 0 0 1 23.5 19.25A0.25 0.25 0 0 1 23.75 19.5ZM27.75 19.5A0.25 0.25 0 0 1 27.5 19.75A0.25 0.25 0 0 1 27.25 19.5A0.25 0.25 0 0 1 27.5 19.25A0.25 0.25 0 0 1 27.75 19.5ZM28.75 19.5A0.25 0.25 0 0 1 28.5 19.75A0.25 0.25 0 0 1 28.25 19.5A0.25 0.25 0 0 1 28.5 19.25A0.25 0.25 0 0 1 28.75 19.5ZM0.75 20.5A0.25 0.25 0 0 1 0.5 20.75A0.25 0.25 0 0 1 0.25 20.5A0.25 0.25 0 0 1 0.5 20.25A0.25 0.25 0 0 1 0.75 20.5ZM1.75 20.5A0.25 0.25 0 0 1 1.5 20.75A0.25 0.25 0 0 1 1.25 20.5A0.25 0.25 0 0 1 1.5 20.25A0.25 0.25 0 0 1 1.75 20.5ZM2.75 20.5A0.25 0.25 0 0 1 2.5 20.75A0.25 0.25 0 0 1 2.25 20.5A0.25 0.25 0 0 1 2.5 20.25A0.25 0.25 0 0 1 2.75 20.5ZM4.75 20.5A0.25 0.25 0 0 1 4.5 20.75A0.25 0.25 0 0 1 4.25 20.5A0.25 0.25 0 0 1 4.5 20.25A0.25 0.25 0 0 1 4.75 20.5ZM6.75 20.5A0.25 0.25 0 0 1 6.5 20.75A0.25 0.25 0 0 1 6.25 20.5A0.25 0.25 0 0 1 6.5 20.25A0.25 0.25 0 0 1 6.75 20.5ZM8.75 20.5A0.25 0.25 0 0 1 8.5 20.75A0.25 0.25 0 0 1 8.25 20.5A0.25 0.25 0 0 1 8.5 20.25A0.25 0.25 0 0 1 8.75 20.5ZM9.75 20.5A0.25 0.25 0 0 1 9.5 20.75A0.25 0.25 0 0 1 9.25 20.5A0.25 0.25 0 0 1 9.5 20.25A0.25 0.25 0 0 1 9.75 20.5ZM12.75 20.5A0.25 0.25 0 0 1 12.5 20.75A0.25 0.25 0 0 1 12.25 20.5A0.25 0.25 0 0 1 12.5 20.25A0.25 0.25 0 0 1 12.75 20.5ZM13.75 20.5A0.25 0.25 0 0 1 13.5 20.75A0.25 0.25 0 0 1 13.25 20.5A0.25 0.25 0 0 1 13.5 20.25A0.25 0.25 0 0 1 13.75 20.5ZM15.75 20.5A0.25 0.25 0 0 1 15.5 20.75A0.25 0.25 0 0 1 15.25 20.5A0.25 0.25 0 0 1 15.5 20.25A0.25 0.25 0 0 1 15.75 20.5ZM17.75 20.5A0.25 0.25 0 0 1 17.5 20.75A0.25 0.25 0 0 1 17.25 20.5A0.25 0.25 0 0 1 17.5 20.25A0.25 0.25 0 0 1 17.75 20.5ZM19.75 20.5A0.25 0.25 0 0 1 19.5 20.75A0.25 0.25 0 0 1 19.25 20.5A0.25 0.25 0 0 1 19.5 20.25A0.25 0.25 0 0 1 19.75 20.5ZM20.75 20.5A0.25 0.25 0 0 1 20.5 20.75A0.25 0.25 0 0 1 20.25 20.5A0.25 0.25 0 0 1 20.5 20.25A0.25 0.25 0 0 1 20.75 20.5ZM21.75 20.5A0.25 0.25 0 0 1 21.5 20.75A0.25 0.25 0 0 1 21.25 20.5A0.25 0.25 0 0 1 21.5 20.25A0.25 0.25 0 0 1 21.75 20.5ZM22.75 20.5A0.25 0.25 0 0 1 22.5 20.75A0.25 0.25 0 0 1 22.25 20.5A0.25 0.25 0 0 1 22.5 20.25A0.25 0.25 0 0 1 22.75 20.5ZM23.75 20.5A0.25 0.25 0 0 1 23.5 20.75A0.25 0.25 0 0 1 23.25 20.5A0.25 0.25 0 0 1 23.5 20.25A0.25 0.25 0 0 1 23.75 20.5ZM24.75 20.5A0.25 0.25 0 0 1 24.5 20.75A0.25 0.25 0 0 1 24.25 20.5A0.25 0.25 0 0 1 24.5 20.25A0.25 0.25 0 0 1 24.75 20.5ZM25.75 20.5A0.25 0.25 0 0 1 25.5 20.75A0.25 0.25 0 0 1 25.25 20.5A0.25 0.25 0 0 1 25.5 20.25A0.25 0.25 0 0 1 25.75 20.5ZM28.75 20.5A0.25 0.25 0 0 1 28.5 20.75A0.25 0.25 0 0 1 28.25 20.5A0.25 0.25 0 0 1 28.5 20.25A0.25 0.25 0 0 1 28.75 20.5ZM8.75 21.5A0.25 0.25 0 0 1 8.5 21.75A0.25 0.25 0 0 1 8.25 21.5A0.25 0.25 0 0 1 8.5 21.25A0.25 0.25 0 0 1 8.75 21.5ZM9.75 21.5A0.25 0.25 0 0 1 9.5 21.75A0.25 0.25 0 0 1 9.25 21.5A0.25 0.25 0 0 1 9.5 21.25A0.25 0.25 0 0 1 9.75 21.5ZM10.75 21.5A0.25 0.25 0 0 1 10.5 21.75A0.25 0.25 0 0 1 10.25 21.5A0.25 0.25 0 0 1 10.5 21.25A0.25 0.25 0 0 1 10.75 21.5ZM13.75 21.5A0.25 0.25 0 0 1 13.5 21.75A0.25 0.25 0 0 1 13.25 21.5A0.25 0.25 0 0 1 13.5 21.25A0.25 0.25 0 0 1 13.75 21.5ZM14.75 21.5A0.25 0.25 0 0 1 14.5 21.75A0.25 0.25 0 0 1 14.25 21.5A0.25 0.25 0 0 1 14.5 21.25A0.25 0.25 0 0 1 14.75 21.5ZM15.75 21.5A0.25 0.25 0 0 1 15.5 21.75A0.25 0.25 0 0 1 15.25 21.5A0.25 0.25 0 0 1 15.5 21.25A0.25 0.25 0 0 1 15.75 21.5ZM17.75 21.5A0.25 0.25 0 0 1 17.5 21.75A0.25 0.25 0 0 1 17.25 21.5A0.25 0.25 0 0 1 17.5 21.25A0.25 0.25 0 0 1 17.75 21.5ZM18.75 21.5A0.25 0.25 0 0 1 18.5 21.75A0.25 0.25 0 0 1 18.25 21.5A0.25 0.25 0 0 1 18.5 21.25A0.25 0.25 0 0 1 18.75 21.5ZM20.75 21.5A0.25 0.25 0 0 1 20.5 21.75A0.25 0.25 0 0 1 20.25 21.5A0.25 0.25 0 0 1 20.5 21.25A0.25 0.25 0 0 1 20.75 21.5ZM24.75 21.5A0.25 0.25 0 0 1 24.5 21.75A0.25 0.25 0 0 1 24.25 21.5A0.25 0.25 0 0 1 24.5 21.25A0.25 0.25 0 0 1 24.75 21.5ZM28.75 21.5A0.25 0.25 0 0 1 28.5 21.75A0.25 0.25 0 0 1 28.25 21.5A0.25 0.25 0 0 1 28.5 21.25A0.25 0.25 0 0 1 28.75 21.5ZM15.75 22.5A0.25 0.25 0 0 1 15.5 22.75A0.25 0.25 0 0 1 15.25 22.5A0.25 0.25 0 0 1 15.5 22.25A0.25 0.25 0 0 1 15.75 22.5ZM16.75 22.5A0.25 0.25 0 0 1 16.5 22.75A0.25 0.25 0 0 1 16.25 22.5A0.25 0.25 0 0 1 16.5 22.25A0.25 0.25 0 0 1 16.75 22.5ZM17.75 22.5A0.25 0.25 0 0 1 17.5 22.75A0.25 0.25 0 0 1 17.25 22.5A0.25 0.25 0 0 1 17.5 22.25A0.25 0.25 0 0 1 17.75 22.5ZM18.75 22.5A0.25 0.25 0 0 1 18.5 22.75A0.25 0.25 0 0 1 18.25 22.5A0.25 0.25 0 0 1 18.5 22.25A0.25 0.25 0 0 1 18.75 22.5ZM19.75 22.5A0.25 0.25 0 0 1 19.5 22.75A0.25 0.25 0 0 1 19.25 22.5A0.25 0.25 0 0 1 19.5 22.25A0.25 0.25 0 0 1 19.75 22.5ZM20.75 22.5A0.25 0.25 0 0 1 20.5 22.75A0.25 0.25 0 0 1 20.25 22.5A0.25 0.25 0 0 1 20.5 22.25A0.25 0.25 0 0 1 20.75 22.5ZM22.75 22.5A0.25 0.25 0 0 1 22.5 22.75A0.25 0.25 0 0 1 22.25 22.5A0.25 0.25 0 0 1 22.5 22.25A0.25 0.25 0 0 1 22.75 22.5ZM24.75 22.5A0.25 0.25 0 0 1 24.5 22.75A0.25 0.25 0 0 1 24.25 22.5A0.25 0.25 0 0 1 24.5 22.25A0.25 0.25 0 0 1 24.75 22.5ZM25.75 22.5A0.25 0.25 0 0 1 25.5 22.75A0.25 0.25 0 0 1 25.25 22.5A0.25 0.25 0 0 1 25.5 22.25A0.25 0.25 0 0 1 25.75 22.5ZM26.75 22.5A0.25 0.25 0 0 1 26.5 22.75A0.25 0.25 0 0 1 26.25 22.5A0.25 0.25 0 0 1 26.5 22.25A0.25 0.25 0 0 1 26.75 22.5ZM28.75 22.5A0.25 0.25 0 0 1 28.5 22.75A0.25 0.25 0 0 1 28.25 22.5A0.25 0.25 0 0 1 28.5 22.25A0.25 0.25 0 0 1 28.75 22.5ZM8.75 23.5A0.25 0.25 0 0 1 8.5 23.75A0.25 0.25 0 0 1 8.25 23.5A0.25 0.25 0 0 1 8.5 23.25A0.25 0.25 0 0 1 8.75 23.5ZM10.75 23.5A0.25 0.25 0 0 1 10.5 23.75A0.25 0.25 0 0 1 10.25 23.5A0.25 0.25 0 0 1 10.5 23.25A0.25 0.25 0 0 1 10.75 23.5ZM12.75 23.5A0.25 0.25 0 0 1 12.5 23.75A0.25 0.25 0 0 1 12.25 23.5A0.25 0.25 0 0 1 12.5 23.25A0.25 0.25 0 0 1 12.75 23.5ZM14.75 23.5A0.25 0.25 0 0 1 14.5 23.75A0.25 0.25 0 0 1 14.25 23.5A0.25 0.25 0 0 1 14.5 23.25A0.25 0.25 0 0 1 14.75 23.5ZM15.75 23.5A0.25 0.25 0 0 1 15.5 23.75A0.25 0.25 0 0 1 15.25 23.5A0.25 0.25 0 0 1 15.5 23.25A0.25 0.25 0 0 1 15.75 23.5ZM17.75 23.5A0.25 0.25 0 0 1 17.5 23.75A0.25 0.25 0 0 1 17.25 23.5A0.25 0.25 0 0 1 17.5 23.25A0.25 0.25 0 0 1 17.75 23.5ZM19.75 23.5A0.25 0.25 0 0 1 19.5 23.75A0.25 0.25 0 0 1 19.25 23.5A0.25 0.25 0 0 1 19.5 23.25A0.25 0.25 0 0 1 19.75 23.5ZM20.75 23.5A0.25 0.25 0 0 1 20.5 23.75A0.25 0.25 0 0 1 20.25 23.5A0.25 0.25 0 0 1 20.5 23.25A0.25 0.25 0 0 1 20.75 23.5ZM24.75 23.5A0.25 0.25 0 0 1 24.5 23.75A0.25 0.25 0 0 1 24.25 23.5A0.25 0.25 0 0 1 24.5 23.25A0.25 0.25 0 0 1 24.75 23.5ZM27.75 23.5A0.25 0.25 0 0 1 27.5 23.75A0.25 0.25 0 0 1 27.25 23.5A0.25 0.25 0 0 1 27.5 23.25A0.25 0.25 0 0 1 27.75 23.5ZM8.75 24.5A0.25 0.25 0 0 1 8.5 24.75A0.25 0.25 0 0 1 8.25 24.5A0.25 0.25 0 0 1 8.5 24.25A0.25 0.25 0 0 1 8.75 24.5ZM11.75 24.5A0.25 0.25 0 0 1 11.5 24.75A0.25 0.25 0 0 1 11.25 24.5A0.25 0.25 0 0 1 11.5 24.25A0.25 0.25 0 0 1 11.75 24.5ZM13.75 24.5A0.25 0.25 0 0 1 13.5 24.75A0.25 0.25 0 0 1 13.25 24.5A0.25 0.25 0 0 1 13.5 24.25A0.25 0.25 0 0 1 13.75 24.5ZM14.75 24.5A0.25 0.25 0 0 1 14.5 24.75A0.25 0.25 0 0 1 14.25 24.5A0.25 0.25 0 0 1 14.5 24.25A0.25 0.25 0 0 1 14.75 24.5ZM16.75 24.5A0.25 0.25 0 0 1 16.5 24.75A0.25 0.25 0 0 1 16.25 24.5A0.25 0.25 0 0 1 16.5 24.25A0.25 0.25 0 0 1 16.75 24.5ZM17.75 24.5A0.25 0.25 0 0 1 17.5 24.75A0.25 0.25 0 0 1 17.25 24.5A0.25 0.25 0 0 1 17.5 24.25A0.25 0.25 0 0 1 17.75 24.5ZM19.75 24.5A0.25 0.25 0 0 1 19.5 24.75A0.25 0.25 0 0 1 19.25 24.5A0.25 0.25 0 0 1 19.5 24.25A0.25 0.25 0 0 1 19.75 24.5ZM20.75 24.5A0.25 0.25 0 0 1 20.5 24.75A0.25 0.25 0 0 1 20.25 24.5A0.25 0.25 0 0 1 20.5 24.25A0.25 0.25 0 0 1 20.75 24.5ZM21.75 24.5A0.25 0.25 0 0 1 21.5 24.75A0.25 0.25 0 0 1 21.25 24.5A0.25 0.25 0 0 1 21.5 24.25A0.25 0.25 0 0 1 21.75 24.5ZM22.75 24.5A0.25 0.25 0 0 1 22.5 24.75A0.25 0.25 0 0 1 22.25 24.5A0.25 0.25 0 0 1 22.5 24.25A0.25 0.25 0 0 1 22.75 24.5ZM23.75 24.5A0.25 0.25 0 0 1 23.5 24.75A0.25 0.25 0 0 1 23.25 24.5A0.25 0.25 0 0 1 23.5 24.25A0.25 0.25 0 0 1 23.75 24.5ZM24.75 24.5A0.25 0.25 0 0 1 24.5 24.75A0.25 0.25 0 0 1 24.25 24.5A0.25 0.25 0 0 1 24.5 24.25A0.25 0.25 0 0 1 24.75 24.5ZM25.75 24.5A0.25 0.25 0 0 1 25.5 24.75A0.25 0.25 0 0 1 25.25 24.5A0.25 0.25 0 0 1 25.5 24.25A0.25 0.25 0 0 1 25.75 24.5ZM27.75 24.5A0.25 0.25 0 0 1 27.5 24.75A0.25 0.25 0 0 1 27.25 24.5A0.25 0.25 0 0 1 27.5 24.25A0.25 0.25 0 0 1 27.75 24.5ZM9.75 25.5A0.25 0.25 0 0 1 9.5 25.75A0.25 0.25 0 0 1 9.25 25.5A0.25 0.25 0 0 1 9.5 25.25A0.25 0.25 0 0 1 9.75 25.5ZM10.75 25.5A0.25 0.25 0 0 1 10.5 25.75A0.25 0.25 0 0 1 10.25 25.5A0.25 0.25 0 0 1 10.5 25.25A0.25 0.25 0 0 1 10.75 25.5ZM12.75 25.5A0.25 0.25 0 0 1 12.5 25.75A0.25 0.25 0 0 1 12.25 25.5A0.25 0.25 0 0 1 12.5 25.25A0.25 0.25 0 0 1 12.75 25.5ZM15.75 25.5A0.25 0.25 0 0 1 15.5 25.75A0.25 0.25 0 0 1 15.25 25.5A0.25 0.25 0 0 1 15.5 25.25A0.25 0.25 0 0 1 15.75 25.5ZM16.75 25.5A0.25 0.25 0 0 1 16.5 25.75A0.25 0.25 0 0 1 16.25 25.5A0.25 0.25 0 0 1 16.5 25.25A0.25 0.25 0 0 1 16.75 25.5ZM17.75 25.5A0.25 0.25 0 0 1 17.5 25.75A0.25 0.25 0 0 1 17.25 25.5A0.25 0.25 0 0 1 17.5 25.25A0.25 0.25 0 0 1 17.75 25.5ZM18.75 25.5A0.25 0.25 0 0 1 18.5 25.75A0.25 0.25 0 0 1 18.25 25.5A0.25 0.25 0 0 1 18.5 25.25A0.25 0.25 0 0 1 18.75 25.5ZM20.75 25.5A0.25 0.25 0 0 1 20.5 25.75A0.25 0.25 0 0 1 20.25 25.5A0.25 0.25 0 0 1 20.5 25.25A0.25 0.25 0 0 1 20.75 25.5ZM21.75 25.5A0.25 0.25 0 0 1 21.5 25.75A0.25 0.25 0 0 1 21.25 25.5A0.25 0.25 0 0 1 21.5 25.25A0.25 0.25 0 0 1 21.75 25.5ZM28.75 25.5A0.25 0.25 0 0 1 28.5 25.75A0.25 0.25 0 0 1 28.25 25.5A0.25 0.25 0 0 1 28.5 25.25A0.25 0.25 0 0 1 28.75 25.5ZM9.75 26.5A0.25 0.25 0 0 1 9.5 26.75A0.25 0.25 0 0 1 9.25 26.5A0.25 0.25 0 0 1 9.5 26.25A0.25 0.25 0 0 1 9.75 26.5ZM11.75 26.5A0.25 0.25 0 0 1 11.5 26.75A0.25 0.25 0 0 1 11.25 26.5A0.25 0.25 0 0 1 11.5 26.25A0.25 0.25 0 0 1 11.75 26.5ZM12.75 26.5A0.25 0.25 0 0 1 12.5 26.75A0.25 0.25 0 0 1 12.25 26.5A0.25 0.25 0 0 1 12.5 26.25A0.25 0.25 0 0 1 12.75 26.5ZM13.75 26.5A0.25 0.25 0 0 1 13.5 26.75A0.25 0.25 0 0 1 13.25 26.5A0.25 0.25 0 0 1 13.5 26.25A0.25 0.25 0 0 1 13.75 26.5ZM14.75 26.5A0.25 0.25 0 0 1 14.5 26.75A0.25 0.25 0 0 1 14.25 26.5A0.25 0.25 0 0 1 14.5 26.25A0.25 0.25 0 0 1 14.75 26.5ZM15.75 26.5A0.25 0.25 0 0 1 15.5 26.75A0.25 0.25 0 0 1 15.25 26.5A0.25 0.25 0 0 1 15.5 26.25A0.25 0.25 0 0 1 15.75 26.5ZM17.75 26.5A0.25 0.25 0 0 1 17.5 26.75A0.25 0.25 0 0 1 17.25 26.5A0.25 0.25 0 0 1 17.5 26.25A0.25 0.25 0 0 1 17.75 26.5ZM20.75 26.5A0.25 0.25 0 0 1 20.5 26.75A0.25 0.25 0 0 1 20.25 26.5A0.25 0.25 0 0 1 20.5 26.25A0.25 0.25 0 0 1 20.75 26.5ZM25.75 26.5A0.25 0.25 0 0 1 25.5 26.75A0.25 0.25 0 0 1 25.25 26.5A0.25 0.25 0 0 1 25.5 26.25A0.25 0.25 0 0 1 25.75 26.5ZM26.75 26.5A0.25 0.25 0 0 1 26.5 26.75A0.25 0.25 0 0 1 26.25 26.5A0.25 0.25 0 0 1 26.5 26.25A0.25 0.25 0 0 1 26.75 26.5ZM27.75 26.5A0.25 0.25 0 0 1 27.5 26.75A0.25 0.25 0 0 1 27.25 26.5A0.25 0.25 0 0 1 27.5 26.25A0.25 0.25 0 0 1 27.75 26.5ZM28.75 26.5A0.25 0.25 0 0 1 28.5 26.75A0.25 0.25 0 0 1 28.25 26.5A0.25 0.25 0 0 1 28.5 26.25A0.25 0.25 0 0 1 28.75 26.5ZM8.75 27.5A0.25 0.25 0 0 1 8.5 27.75A0.25 0.25 0 0 1 8.25 27.5A0.25 0.25 0 0 1 8.5 27.25A0.25 0.25 0 0 1 8.75 27.5ZM10.75 27.5A0.25 0.25 0 0 1 10.5 27.75A0.25 0.25 0 0 1 10.25 27.5A0.25 0.25 0 0 1 10.5 27.25A0.25 0.25 0 0 1 10.75 27.5ZM11.75 27.5A0.25 0.25 0 0 1 11.5 27.75A0.25 0.25 0 0 1 11.25 27.5A0.25 0.25 0 0 1 11.5 27.25A0.25 0.25 0 0 1 11.75 27.5ZM13.75 27.5A0.25 0.25 0 0 1 13.5 27.75A0.25 0.25 0 0 1 13.25 27.5A0.25 0.25 0 0 1 13.5 27.25A0.25 0.25 0 0 1 13.75 27.5ZM16.75 27.5A0.25 0.25 0 0 1 16.5 27.75A0.25 0.25 0 0 1 16.25 27.5A0.25 0.25 0 0 1 16.5 27.25A0.25 0.25 0 0 1 16.75 27.5ZM17.75 27.5A0.25 0.25 0 0 1 17.5 27.75A0.25 0.25 0 0 1 17.25 27.5A0.25 0.25 0 0 1 17.5 27.25A0.25 0.25 0 0 1 17.75 27.5ZM18.75 27.5A0.25 0.25 0 0 1 18.5 27.75A0.25 0.25 0 0 1 18.25 27.5A0.25 0.25 0 0 1 18.5 27.25A0.25 0.25 0 0 1 18.75 27.5ZM20.75 27.5A0.25 0.25 0 0 1 20.5 27.75A0.25 0.25 0 0 1 20.25 27.5A0.25 0.25 0 0 1 20.5 27.25A0.25 0.25 0 0 1 20.75 27.5ZM21.75 27.5A0.25 0.25 0 0 1 21.5 27.75A0.25 0.25 0 0 1 21.25 27.5A0.25 0.25 0 0 1 21.5 27.25A0.25 0.25 0 0 1 21.75 27.5ZM22.75 27.5A0.25 0.25 0 0 1 22.5 27.75A0.25 0.25 0 0 1 22.25 27.5A0.25 0.25 0 0 1 22.5 27.25A0.25 0.25 0 0 1 22.75 27.5ZM23.75 27.5A0.25 0.25 0 0 1 23.5 27.75A0.25 0.25 0 0 1 23.25 27.5A0.25 0.25 0 0 1 23.5 27.25A0.25 0.25 0 0 1 23.75 27.5ZM24.75 27.5A0.25 0.25 0 0 1 24.5 27.75A0.25 0.25 0 0 1 24.25 27.5A0.25 0.25 0 0 1 24.5 27.25A0.25 0.25 0 0 1 24.75 27.5ZM25.75 27.5A0.25 0.25 0 0 1 25.5 27.75A0.25 0.25 0 0 1 25.25 27.5A0.25 0.25 0 0 1 25.5 27.25A0.25 0.25 0 0 1 25.75 27.5ZM27.75 27.5A0.25 0.25 0 0 1 27.5 27.75A0.25 0.25 0 0 1 27.25 27.5A0.25 0.25 0 0 1 27.5 27.25A0.25 0.25 0 0 1 27.75 27.5ZM28.75 27.5A0.25 0.25 0 0 1 28.5 27.75A0.25 0.25 0 0 1 28.25 27.5A0.25 0.25 0 0 1 28.5 27.25A0.25 0.25 0 0 1 28.75 27.5ZM8.75 28.5A0.25 0.25 0 0 1 8.5 28.75A0.25 0.25 0 0 1 8.25 28.5A0.25 0.25 0 0 1 8.5 28.25A0.25 0.25 0 0 1 8.75 28.5ZM9.75 28.5A0.25 0.25 0 0 1 9.5 28.75A0.25 0.25 0 0 1 9.25 28.5A0.25 0.25 0 0 1 9.5 28.25A0.25 0.25 0 0 1 9.75 28.5ZM12.75 28.5A0.25 0.25 0 0 1 12.5 28.75A0.25 0.25 0 0 1 12.25 28.5A0.25 0.25 0 0 1 12.5 28.25A0.25 0.25 0 0 1 12.75 28.5ZM13.75 28.5A0.25 0.25 0 0 1 13.5 28.75A0.25 0.25 0 0 1 13.25 28.5A0.25 0.25 0 0 1 13.5 28.25A0.25 0.25 0 0 1 13.75 28.5ZM16.75 28.5A0.25 0.25 0 0 1 16.5 28.75A0.25 0.25 0 0 1 16.25 28.5A0.25 0.25 0 0 1 16.5 28.25A0.25 0.25 0 0 1 16.75 28.5ZM17.75 28.5A0.25 0.25 0 0 1 17.5 28.75A0.25 0.25 0 0 1 17.25 28.5A0.25 0.25 0 0 1 17.5 28.25A0.25 0.25 0 0 1 17.75 28.5ZM20.75 28.5A0.25 0.25 0 0 1 20.5 28.75A0.25 0.25 0 0 1 20.25 28.5A0.25 0.25 0 0 1 20.5 28.25A0.25 0.25 0 0 1 20.75 28.5ZM21.75 28.5A0.25 0.25 0 0 1 21.5 28.75A0.25 0.25 0 0 1 21.25 28.5A0.25 0.25 0 0 1 21.5 28.25A0.25 0.25 0 0 1 21.75 28.5ZM22.75 28.5A0.25 0.25 0 0 1 22.5 28.75A0.25 0.25 0 0 1 22.25 28.5A0.25 0.25 0 0 1 22.5 28.25A0.25 0.25 0 0 1 22.75 28.5ZM24.75 28.5A0.25 0.25 0 0 1 24.5 28.75A0.25 0.25 0 0 1 24.25 28.5A0.25 0.25 0 0 1 24.5 28.25A0.25 0.25 0 0 1 24.75 28.5ZM27.75 28.5A0.25 0.25 0 0 1 27.5 28.75A0.25 0.25 0 0 1 27.25 28.5A0.25 0.25 0 0 1 27.5 28.25A0.25 0.25 0 0 1 27.75 28.5ZM0 0L7 0L7 7L0 7ZM1 1L1 6L6 6L6 1ZM5 3.5A1.5 1.5 0 0 1 3.5 5A1.5 1.5 0 0 1 2 3.5A1.5 1.5 0 0 1 3.5 2A1.5 1.5 0 0 1 5 3.5ZM22 0L29 0L29 7L22 7ZM23 1L23 6L28 6L28 1ZM27 3.5A1.5 1.5 0 0 1 25.5 5A1.5 1.5 0 0 1 24 3.5A1.5 1.5 0 0 1 25.5 2A1.5 1.5 0 0 1 27 3.5ZM0 22L7 22L7 29L0 29ZM1 23L1 28L6 28L6 23ZM5 25.5A1.5 1.5 0 0 1 3.5 27A1.5 1.5 0 0 1 2 25.5A1.5 1.5 0 0 1 3.5 24A1.5 1.5 0 0 1 5 25.5Z" fill="#015e00"/></g></g></svg>
